<svg width="40" height="40" viewBox="0 0 40 40" fill="none" xmlns="http://www.w3.org/2000/svg">
<path d="M37.4062 36.0078H2.59375C1.16406 36.0078 0 34.8438 0 33.4141V11.4219C0 9.98437 1.16406 8.82812 2.59375 8.82812H37.3984C38.8359 8.82812 39.9922 9.99219 39.9922 11.4219V33.4062C40 34.8438 38.8359 36.0078 37.4062 36.0078Z" fill="url(#paint0_linear_1072_4904)"/>
<path d="M40 24.7266V27.8984C38.125 27.5391 36.2969 27.3828 34.4844 27.5625C31.2109 27.8906 28.1719 29.4219 24.9141 32.3828C24.3906 32.8594 23.8594 33.3516 23.3516 33.8281C22.5703 34.5547 21.7891 35.2891 20.9688 36.0078H15.9062C17.7812 34.7578 19.4609 33.1875 21.2188 31.5469C21.7422 31.0625 22.2734 30.5547 22.8125 30.0703C26.5938 26.6406 30.2031 24.8516 34.1719 24.4531C36.1328 24.25 38.1172 24.4062 40 24.7266ZM20.8672 8.82812C20.6016 16.8516 13.9922 23.2891 5.90625 23.2891C3.8125 23.2891 1.8125 22.8594 0 22.0703V18.5781C1.74219 19.5938 3.75781 20.1641 5.90625 20.1641C12.2656 20.1641 17.4688 15.125 17.7344 8.82812H20.8672Z" fill="url(#paint1_linear_1072_4904)"/>
<path d="M40 32.2422V33.4141C40 34.8516 38.8359 36.0078 37.4062 36.0078H2.59375C1.16406 36.0078 0 34.8438 0 33.4141V32.2422H40Z" fill="url(#paint2_linear_1072_4904)"/>
<path d="M37.0703 36.0078H37.4062C38.8437 36.0078 40 34.8438 40 33.4141V11.4219C40 9.98437 38.8359 8.82812 37.4062 8.82812H37.0703V36.0078Z" fill="url(#paint3_linear_1072_4904)"/>
<path d="M40 12.5937V11.4219C40 9.98437 38.8359 8.82812 37.4062 8.82812H2.59375C1.16406 8.82812 0 9.99219 0 11.4219V12.5937H40Z" fill="url(#paint4_linear_1072_4904)"/>
<path d="M2.92969 8.82812H2.59375C1.16406 8.82812 0 9.99219 0 11.4219V33.4062C0 34.8438 1.16406 36 2.59375 36H2.92969V8.82812Z" fill="url(#paint5_linear_1072_4904)"/>
<path d="M8.375 22.0625H4.53906C3.95312 22.0625 3.47656 21.5859 3.47656 21V18.4531C3.47656 17.8672 3.95312 17.3906 4.53906 17.3906H8.375C8.96094 17.3906 9.4375 17.8672 9.4375 18.4531V21C9.42969 21.5859 8.96094 22.0625 8.375 22.0625Z" fill="url(#paint6_linear_1072_4904)"/>
<path d="M8.375 21.9922H4.53125C3.98438 21.9922 3.53906 21.5469 3.53906 21V18.4453C3.53906 17.8984 3.98438 17.4531 4.53125 17.4531H8.375C8.92188 17.4531 9.36719 17.8984 9.36719 18.4453V21C9.36719 21.5469 8.92188 21.9922 8.375 21.9922Z" fill="url(#paint7_linear_1072_4904)"/>
<path d="M9.36719 19.8047V19.6484H7.33594V18.9609L7.85938 18.4375H9.36719C9.36719 18.3828 9.35937 18.3281 9.35156 18.2812H7.82031C7.79688 18.2812 7.78125 18.2891 7.76562 18.3047L7.21875 18.8516H6.53125V17.4609H6.375V18.8516H5.69531L5.14844 18.3047C5.13281 18.2891 5.10937 18.2812 5.09375 18.2812H3.55469C3.54688 18.3281 3.53906 18.3828 3.53906 18.4375H5.0625L5.57813 18.9531V19.6484H3.53906V19.8047H5.57813V20.5L5.0625 21.0156H3.53906C3.53906 21.0703 3.54688 21.125 3.55469 21.1719H5.09375C5.11719 21.1719 5.13281 21.1641 5.14844 21.1484L5.69531 20.6016H6.375V21.9922H6.53125V20.6016H7.21875L7.76562 21.1484C7.78125 21.1641 7.79688 21.1719 7.82031 21.1719H9.35156C9.35937 21.125 9.36719 21.0703 9.36719 21.0156H7.85938L7.33594 20.4922V19.8047H9.36719ZM7.17969 20.4453H5.73438V19H7.17969V20.4453Z" fill="url(#paint8_linear_1072_4904)"/>
<path d="M8.36719 17.4531H8.375C8.92187 17.4531 9.36719 17.8984 9.36719 18.4453V21C9.36719 21.5469 8.92187 21.9922 8.375 21.9922H8.36719V17.4531Z" fill="url(#paint9_linear_1072_4904)"/>
<path d="M9.36719 21.0469C9.34375 21.5703 8.90625 21.9922 8.375 21.9922H4.53125C4 21.9922 3.5625 21.5703 3.53906 21.0469H9.36719Z" fill="url(#paint10_linear_1072_4904)"/>
<path d="M4.54688 17.4531H4.53125C3.98438 17.4531 3.53906 17.8984 3.53906 18.4453V21C3.53906 21.5469 3.98438 21.9922 4.53125 21.9922H4.53906V17.4531H4.54688Z" fill="url(#paint11_linear_1072_4904)"/>
<path d="M9.36719 18.3984C9.34375 17.875 8.90625 17.4531 8.375 17.4531H4.53125C4 17.4531 3.5625 17.875 3.53906 18.3984H9.36719Z" fill="url(#paint12_linear_1072_4904)"/>
<path d="M35.8126 21.9453C35.7736 21.9453 35.7423 21.9375 35.7111 21.9218C35.5939 21.8672 35.547 21.7265 35.6095 21.6093C36.2111 20.414 36.2111 19.0468 35.6095 17.8515C35.5548 17.7343 35.6017 17.5937 35.7111 17.539C35.8282 17.4843 35.9689 17.5312 36.0236 17.6406C36.6954 18.9687 36.6954 20.4922 36.0236 21.8203C35.9767 21.8984 35.8986 21.9453 35.8126 21.9453ZM35.0079 21.5C35.6407 20.375 35.6407 19.0781 35.0079 17.9531C34.9454 17.8437 34.8048 17.7968 34.6876 17.8672C34.5782 17.9297 34.5314 18.0703 34.6017 18.1875C35.1564 19.1718 35.1564 20.2968 34.6017 21.2734C34.5392 21.3828 34.5782 21.5312 34.6876 21.5937C34.7267 21.6172 34.7657 21.625 34.8048 21.625C34.8829 21.6172 34.9611 21.5703 35.0079 21.5ZM34.0079 21.1875C34.6251 20.289 34.6251 19.1718 34.0079 18.2656C33.9376 18.1562 33.7892 18.1328 33.6798 18.2031C33.5704 18.2734 33.547 18.4218 33.6173 18.5312C34.1173 19.2656 34.1173 20.1875 33.6173 20.9218C33.547 21.0312 33.5704 21.1718 33.6798 21.25C33.7189 21.2812 33.7657 21.289 33.8126 21.289C33.8907 21.289 33.9611 21.25 34.0079 21.1875ZM32.9532 20.8828C33.297 20.5703 33.4845 20.1562 33.4845 19.7265C33.4845 19.2968 33.297 18.8828 32.9532 18.5703C32.8595 18.4843 32.7111 18.4843 32.6251 18.5859C32.5392 18.6797 32.5392 18.8281 32.6407 18.914C32.8829 19.1406 33.0157 19.4297 33.0157 19.7265C33.0157 20.0234 32.8829 20.3125 32.6407 20.539C32.547 20.625 32.5392 20.7734 32.6251 20.8672C32.672 20.914 32.7345 20.9453 32.797 20.9453C32.8517 20.9453 32.9064 20.9218 32.9532 20.8828Z" fill="url(#paint13_linear_1072_4904)"/>
<path d="M19.7656 32.0703H3.77344C3.64062 32.0703 3.53906 31.9688 3.53906 31.8359C3.53906 31.7031 3.64062 31.6016 3.77344 31.6016H19.7656C19.8984 31.6016 20 31.7031 20 31.8359C20 31.9609 19.8984 32.0703 19.7656 32.0703Z" fill="url(#paint14_linear_1072_4904)"/>
<path d="M36.2891 32.0703H33.2734C33.1406 32.0703 33.0391 31.9688 33.0391 31.8359C33.0391 31.7031 33.1406 31.6016 33.2734 31.6016H36.2891C36.4219 31.6016 36.5234 31.7031 36.5234 31.8359C36.5234 31.9609 36.4141 32.0703 36.2891 32.0703ZM31.9922 31.8359C31.9922 31.7031 31.8906 31.6016 31.7578 31.6016H28.7422C28.6094 31.6016 28.5078 31.7031 28.5078 31.8359C28.5078 31.9688 28.6094 32.0703 28.7422 32.0703H31.7578C31.8906 32.0703 31.9922 31.9609 31.9922 31.8359Z" fill="url(#paint15_linear_1072_4904)"/>
<path d="M3.77344 14.1563C3.64062 14.1563 3.53906 14.0547 3.53906 13.9219V13.0078C3.53906 12.875 3.64062 12.7734 3.77344 12.7734C3.90625 12.7734 4.00781 12.875 4.00781 13.0078V13.9219C4.00781 14.0469 3.90625 14.1563 3.77344 14.1563ZM5.28125 13.9219V13.0078C5.28125 12.875 5.17969 12.7734 5.04688 12.7734C4.91406 12.7734 4.8125 12.875 4.8125 13.0078V13.9219C4.8125 14.0547 4.91406 14.1563 5.04688 14.1563C5.17969 14.1563 5.28125 14.0469 5.28125 13.9219ZM6.5625 13.9219V13.0078C6.5625 12.875 6.46094 12.7734 6.32812 12.7734C6.19531 12.7734 6.09375 12.875 6.09375 13.0078V13.9219C6.09375 14.0547 6.19531 14.1563 6.32812 14.1563C6.45312 14.1563 6.5625 14.0469 6.5625 13.9219ZM7.83594 13.9219V13.0078C7.83594 12.875 7.73438 12.7734 7.60156 12.7734C7.46875 12.7734 7.36719 12.875 7.36719 13.0078V13.9219C7.36719 14.0547 7.46875 14.1563 7.60156 14.1563C7.73438 14.1563 7.83594 14.0469 7.83594 13.9219Z" fill="url(#paint16_linear_1072_4904)"/>
<path d="M4.28906 28.0937H4.25C3.85938 28.0937 3.53906 27.7734 3.53906 27.3828V26.2734C3.53906 25.8828 3.85938 25.5625 4.25 25.5625H4.28906C4.67969 25.5625 5 25.8828 5 26.2734V27.3828C5 27.7734 4.6875 28.0937 4.28906 28.0937ZM4.25 26.0312C4.11719 26.0312 4.00781 26.1406 4.00781 26.2734V27.3828C4.00781 27.5156 4.11719 27.625 4.25 27.625H4.28906C4.42188 27.625 4.53125 27.5156 4.53125 27.3828V26.2734C4.53125 26.1406 4.42188 26.0312 4.28906 26.0312H4.25Z" fill="url(#paint17_linear_1072_4904)"/>
<path d="M6.1875 28.0937H6.14844C5.75781 28.0937 5.4375 27.7734 5.4375 27.3828V26.2734C5.4375 25.8828 5.75781 25.5625 6.14844 25.5625H6.1875C6.57812 25.5625 6.89844 25.8828 6.89844 26.2734V27.3828C6.89844 27.7734 6.57812 28.0937 6.1875 28.0937ZM6.14844 26.0312C6.01562 26.0312 5.90625 26.1406 5.90625 26.2734V27.3828C5.90625 27.5156 6.01562 27.625 6.14844 27.625H6.1875C6.32031 27.625 6.42969 27.5156 6.42969 27.3828V26.2734C6.42969 26.1406 6.32031 26.0312 6.1875 26.0312H6.14844Z" fill="url(#paint18_linear_1072_4904)"/>
<path d="M8.08594 28.0937H8.04687C7.65625 28.0937 7.33594 27.7734 7.33594 27.3828V26.2734C7.33594 25.8828 7.65625 25.5625 8.04687 25.5625H8.08594C8.47656 25.5625 8.79687 25.8828 8.79687 26.2734V27.3828C8.79687 27.7734 8.47656 28.0937 8.08594 28.0937ZM8.04687 26.0312C7.91406 26.0312 7.80469 26.1406 7.80469 26.2734V27.3828C7.80469 27.5156 7.91406 27.625 8.04687 27.625H8.08594C8.21875 27.625 8.32812 27.5156 8.32812 27.3828V26.2734C8.32812 26.1406 8.21875 26.0312 8.08594 26.0312H8.04687Z" fill="url(#paint19_linear_1072_4904)"/>
<path d="M9.98438 28.0937H9.94531C9.55469 28.0937 9.23438 27.7734 9.23438 27.3828V26.2734C9.23438 25.8828 9.55469 25.5625 9.94531 25.5625H9.98438C10.375 25.5625 10.6953 25.8828 10.6953 26.2734V27.3828C10.6953 27.7734 10.375 28.0937 9.98438 28.0937ZM9.94531 26.0312C9.8125 26.0312 9.70312 26.1406 9.70312 26.2734V27.3828C9.70312 27.5156 9.8125 27.625 9.94531 27.625H9.98438C10.1172 27.625 10.2266 27.5156 10.2266 27.3828V26.2734C10.2266 26.1406 10.1172 26.0312 9.98438 26.0312H9.94531Z" fill="url(#paint20_linear_1072_4904)"/>
<path d="M12.8984 28.0937H12.8594C12.4688 28.0937 12.1484 27.7734 12.1484 27.3828V26.2734C12.1484 25.8828 12.4688 25.5625 12.8594 25.5625H12.8984C13.2891 25.5625 13.6094 25.8828 13.6094 26.2734V27.3828C13.6094 27.7734 13.2891 28.0937 12.8984 28.0937ZM12.8594 26.0312C12.7266 26.0312 12.6172 26.1406 12.6172 26.2734V27.3828C12.6172 27.5156 12.7266 27.625 12.8594 27.625H12.8984C13.0313 27.625 13.1406 27.5156 13.1406 27.3828V26.2734C13.1406 26.1406 13.0313 26.0312 12.8984 26.0312H12.8594Z" fill="url(#paint21_linear_1072_4904)"/>
<path d="M14.7969 28.0937H14.7578C14.3672 28.0937 14.0469 27.7734 14.0469 27.3828V26.2734C14.0469 25.8828 14.3672 25.5625 14.7578 25.5625H14.7969C15.1875 25.5625 15.5078 25.8828 15.5078 26.2734V27.3828C15.5078 27.7734 15.1875 28.0937 14.7969 28.0937ZM14.7578 26.0312C14.625 26.0312 14.5156 26.1406 14.5156 26.2734V27.3828C14.5156 27.5156 14.625 27.625 14.7578 27.625H14.7969C14.9297 27.625 15.0391 27.5156 15.0391 27.3828V26.2734C15.0391 26.1406 14.9297 26.0312 14.7969 26.0312H14.7578Z" fill="url(#paint22_linear_1072_4904)"/>
<path d="M16.6953 28.0937H16.6562C16.2656 28.0937 15.9453 27.7734 15.9453 27.3828V26.2734C15.9453 25.8828 16.2656 25.5625 16.6562 25.5625H16.6953C17.0859 25.5625 17.4062 25.8828 17.4062 26.2734V27.3828C17.4062 27.7734 17.0859 28.0937 16.6953 28.0937ZM16.6562 26.0312C16.5234 26.0312 16.4141 26.1406 16.4141 26.2734V27.3828C16.4141 27.5156 16.5234 27.625 16.6562 27.625H16.6953C16.8281 27.625 16.9375 27.5156 16.9375 27.3828V26.2734C16.9375 26.1406 16.8281 26.0312 16.6953 26.0312H16.6562Z" fill="url(#paint23_linear_1072_4904)"/>
<path d="M18.5938 28.0937H18.5547C18.1641 28.0937 17.8438 27.7734 17.8438 27.3828V26.2734C17.8438 25.8828 18.1641 25.5625 18.5547 25.5625H18.5938C18.9844 25.5625 19.3047 25.8828 19.3047 26.2734V27.3828C19.3047 27.7734 18.9844 28.0937 18.5938 28.0937ZM18.5547 26.0312C18.4219 26.0312 18.3125 26.1406 18.3125 26.2734V27.3828C18.3125 27.5156 18.4219 27.625 18.5547 27.625H18.5938C18.7266 27.625 18.8359 27.5156 18.8359 27.3828V26.2734C18.8359 26.1406 18.7266 26.0312 18.5938 26.0312H18.5547Z" fill="url(#paint24_linear_1072_4904)"/>
<path d="M21.5078 28.0937H21.4687C21.0781 28.0937 20.7578 27.7734 20.7578 27.3828V26.2734C20.7578 25.8828 21.0781 25.5625 21.4687 25.5625H21.5078C21.8984 25.5625 22.2187 25.8828 22.2187 26.2734V27.3828C22.2187 27.7734 21.8984 28.0937 21.5078 28.0937ZM21.4687 26.0312C21.3359 26.0312 21.2266 26.1406 21.2266 26.2734V27.3828C21.2266 27.5156 21.3359 27.625 21.4687 27.625H21.5078C21.6406 27.625 21.75 27.5156 21.75 27.3828V26.2734C21.75 26.1406 21.6406 26.0312 21.5078 26.0312H21.4687Z" fill="url(#paint25_linear_1072_4904)"/>
<path d="M23.4063 28.0937H23.3672C22.9766 28.0937 22.6562 27.7734 22.6562 27.3828V26.2734C22.6562 25.8828 22.9766 25.5625 23.3672 25.5625H23.4063C23.7969 25.5625 24.1172 25.8828 24.1172 26.2734V27.3828C24.1172 27.7734 23.7969 28.0937 23.4063 28.0937ZM23.3672 26.0312C23.2344 26.0312 23.125 26.1406 23.125 26.2734V27.3828C23.125 27.5156 23.2344 27.625 23.3672 27.625H23.4063C23.5391 27.625 23.6484 27.5156 23.6484 27.3828V26.2734C23.6484 26.1406 23.5391 26.0312 23.4063 26.0312H23.3672Z" fill="url(#paint26_linear_1072_4904)"/>
<path d="M25.3047 28.0937H25.2656C24.875 28.0937 24.5547 27.7734 24.5547 27.3828V26.2734C24.5547 25.8828 24.875 25.5625 25.2656 25.5625H25.3047C25.6953 25.5625 26.0156 25.8828 26.0156 26.2734V27.3828C26.0156 27.7734 25.6953 28.0937 25.3047 28.0937ZM25.2656 26.0312C25.1328 26.0312 25.0234 26.1406 25.0234 26.2734V27.3828C25.0234 27.5156 25.1328 27.625 25.2656 27.625H25.3047C25.4375 27.625 25.5469 27.5156 25.5469 27.3828V26.2734C25.5469 26.1406 25.4375 26.0312 25.3047 26.0312H25.2656Z" fill="url(#paint27_linear_1072_4904)"/>
<path d="M27.2031 28.0937H27.1641C26.7734 28.0937 26.4531 27.7734 26.4531 27.3828V26.2734C26.4531 25.8828 26.7734 25.5625 27.1641 25.5625H27.2031C27.5938 25.5625 27.9141 25.8828 27.9141 26.2734V27.3828C27.9141 27.7734 27.5938 28.0937 27.2031 28.0937ZM27.1641 26.0312C27.0313 26.0312 26.9219 26.1406 26.9219 26.2734V27.3828C26.9219 27.5156 27.0313 27.625 27.1641 27.625H27.2031C27.3359 27.625 27.4453 27.5156 27.4453 27.3828V26.2734C27.4453 26.1406 27.3359 26.0312 27.2031 26.0312H27.1641Z" fill="url(#paint28_linear_1072_4904)"/>
<path d="M30.1172 28.0937H30.0781C29.6875 28.0937 29.3672 27.7734 29.3672 27.3828V26.2734C29.3672 25.8828 29.6875 25.5625 30.0781 25.5625H30.1172C30.5078 25.5625 30.8281 25.8828 30.8281 26.2734V27.3828C30.8281 27.7734 30.5078 28.0937 30.1172 28.0937ZM30.0781 26.0312C29.9453 26.0312 29.8359 26.1406 29.8359 26.2734V27.3828C29.8359 27.5156 29.9453 27.625 30.0781 27.625H30.1172C30.25 27.625 30.3594 27.5156 30.3594 27.3828V26.2734C30.3594 26.1406 30.25 26.0312 30.1172 26.0312H30.0781Z" fill="url(#paint29_linear_1072_4904)"/>
<path d="M32.0156 28.0937H31.9766C31.5859 28.0937 31.2656 27.7734 31.2656 27.3828V26.2734C31.2656 25.8828 31.5859 25.5625 31.9766 25.5625H32.0156C32.4062 25.5625 32.7266 25.8828 32.7266 26.2734V27.3828C32.7266 27.7734 32.4062 28.0937 32.0156 28.0937ZM31.9766 26.0312C31.8437 26.0312 31.7344 26.1406 31.7344 26.2734V27.3828C31.7344 27.5156 31.8437 27.625 31.9766 27.625H32.0156C32.1484 27.625 32.2578 27.5156 32.2578 27.3828V26.2734C32.2578 26.1406 32.1484 26.0312 32.0156 26.0312H31.9766Z" fill="url(#paint30_linear_1072_4904)"/>
<path d="M33.9141 28.0937H33.875C33.4844 28.0937 33.1641 27.7734 33.1641 27.3828V26.2734C33.1641 25.8828 33.4844 25.5625 33.875 25.5625H33.9141C34.3047 25.5625 34.625 25.8828 34.625 26.2734V27.3828C34.625 27.7734 34.3047 28.0937 33.9141 28.0937ZM33.875 26.0312C33.7422 26.0312 33.6328 26.1406 33.6328 26.2734V27.3828C33.6328 27.5156 33.7422 27.625 33.875 27.625H33.9141C34.0469 27.625 34.1563 27.5156 34.1563 27.3828V26.2734C34.1563 26.1406 34.0469 26.0312 33.9141 26.0312H33.875Z" fill="url(#paint31_linear_1072_4904)"/>
<path d="M35.8125 28.0937H35.7734C35.3828 28.0937 35.0625 27.7734 35.0625 27.3828V26.2734C35.0625 25.8828 35.3828 25.5625 35.7734 25.5625H35.8125C36.2031 25.5625 36.5234 25.8828 36.5234 26.2734V27.3828C36.5234 27.7734 36.2031 28.0937 35.8125 28.0937ZM35.7734 26.0312C35.6406 26.0312 35.5312 26.1406 35.5312 26.2734V27.3828C35.5312 27.5156 35.6406 27.625 35.7734 27.625H35.8125C35.9453 27.625 36.0547 27.5156 36.0547 27.3828V26.2734C36.0547 26.1406 35.9453 26.0312 35.8125 26.0312H35.7734Z" fill="url(#paint32_linear_1072_4904)"/>
<path d="M36.025 20.0156C38.4938 22.4844 36.8688 26.7578 33.3844 26.875H33.2203C31.8219 26.875 30.5563 26.2813 29.6735 25.3281C29.6266 25.2891 26.4078 22.0703 23.1891 18.8516C19.9703 15.6328 16.7516 12.4141 16.7125 12.3672C15.7047 11.4375 15.0953 10.0781 15.1657 8.58595C15.2907 6.09376 17.3453 4.07032 19.8453 3.9922C21.2438 3.95313 22.5094 4.50001 23.4157 5.40626C24.2907 6.28126 24.8297 7.4922 24.8297 8.82813L36.025 20.0156Z" fill="url(#paint33_linear_1072_4904)"/>
<path d="M20 13.6641C22.6708 13.6641 24.8359 11.4989 24.8359 8.82812C24.8359 6.15731 22.6708 3.99219 20 3.99219C17.3292 3.99219 15.1641 6.15731 15.1641 8.82812C15.1641 11.4989 17.3292 13.6641 20 13.6641Z" fill="url(#paint34_linear_1072_4904)"/>
<path d="M20 13.6641C22.6708 13.6641 24.8359 11.4989 24.8359 8.82812C24.8359 6.15731 22.6708 3.99219 20 3.99219C17.3292 3.99219 15.1641 6.15731 15.1641 8.82812C15.1641 11.4989 17.3292 13.6641 20 13.6641Z" fill="url(#paint35_radial_1072_4904)"/>
<path d="M20 13.6641C22.6708 13.6641 24.8359 11.4989 24.8359 8.82812C24.8359 6.15731 22.6708 3.99219 20 3.99219C17.3292 3.99219 15.1641 6.15731 15.1641 8.82812C15.1641 11.4989 17.3292 13.6641 20 13.6641Z" fill="url(#paint36_radial_1072_4904)"/>
<path d="M20.2656 9.09375H22.1172C22.2656 9.09375 22.3828 8.97656 22.3828 8.82813C22.3828 8.67969 22.2656 8.5625 22.1172 8.5625H20.2656V6.71094C20.2656 6.5625 20.1484 6.44531 20 6.44531C19.8516 6.44531 19.7344 6.5625 19.7344 6.71094V8.5625H17.8828C17.7344 8.5625 17.6172 8.67969 17.6172 8.82813C17.6172 8.89844 17.6484 8.96875 17.6953 9.01562C17.7422 9.0625 17.8125 9.09375 17.8828 9.09375H19.7344V10.9453C19.7344 11.0156 19.7656 11.0859 19.8125 11.1328C19.8594 11.1797 19.9297 11.2109 20 11.2109C20.1484 11.2109 20.2656 11.0938 20.2656 10.9453V9.09375Z" fill="url(#paint37_linear_1072_4904)"/>
<defs>
<linearGradient id="paint0_linear_1072_4904" x1="-0.145" y1="9.66461" x2="39.4295" y2="34.7177" gradientUnits="userSpaceOnUse">
<stop stop-color="#7B7DA1"/>
<stop offset="0.31" stop-color="#6D6F93"/>
<stop offset="0.899" stop-color="#494C6D"/>
<stop offset="1" stop-color="#424566"/>
</linearGradient>
<linearGradient id="paint1_linear_1072_4904" x1="0.116484" y1="10.7616" x2="38.4741" y2="35.2362" gradientUnits="userSpaceOnUse">
<stop stop-color="#8587AE"/>
<stop offset="0.31" stop-color="#7779A0"/>
<stop offset="0.899" stop-color="#51557A"/>
<stop offset="1" stop-color="#4A4E73"/>
</linearGradient>
<linearGradient id="paint2_linear_1072_4904" x1="19.9999" y1="36.1915" x2="19.9999" y2="33.6114" gradientUnits="userSpaceOnUse">
<stop stop-color="#32365C"/>
<stop offset="1" stop-color="#32365C" stop-opacity="0"/>
</linearGradient>
<linearGradient id="paint3_linear_1072_4904" x1="40.0366" y1="22.4175" x2="37.5494" y2="22.4175" gradientUnits="userSpaceOnUse">
<stop stop-color="#32365C"/>
<stop offset="1" stop-color="#32365C" stop-opacity="0"/>
</linearGradient>
<linearGradient id="paint4_linear_1072_4904" x1="19.9999" y1="8.64367" x2="19.9999" y2="11.2238" gradientUnits="userSpaceOnUse">
<stop stop-color="#A1A4C7"/>
<stop offset="1" stop-color="#A1A4C7" stop-opacity="0"/>
</linearGradient>
<linearGradient id="paint5_linear_1072_4904" x1="-0.036875" y1="22.4177" x2="2.1418" y2="22.4177" gradientUnits="userSpaceOnUse">
<stop stop-color="#A1A4C7"/>
<stop offset="1" stop-color="#A1A4C7" stop-opacity="0"/>
</linearGradient>
<linearGradient id="paint6_linear_1072_4904" x1="1.66687" y1="14.9359" x2="10.0975" y2="23.3666" gradientUnits="userSpaceOnUse">
<stop stop-color="#7B7DA1"/>
<stop offset="0.496" stop-color="#616386"/>
<stop offset="1" stop-color="#424566"/>
</linearGradient>
<linearGradient id="paint7_linear_1072_4904" x1="3.86047" y1="17.7467" x2="9.05992" y2="21.7095" gradientUnits="userSpaceOnUse">
<stop stop-color="#FFED81"/>
<stop offset="0.235" stop-color="#FFD968"/>
<stop offset="0.73" stop-color="#FFA629"/>
<stop offset="1" stop-color="#FF8804"/>
</linearGradient>
<linearGradient id="paint8_linear_1072_4904" x1="3.87383" y1="17.8391" x2="9.08258" y2="21.6432" gradientUnits="userSpaceOnUse">
<stop stop-color="#EFA33D"/>
<stop offset="1" stop-color="#A05223"/>
</linearGradient>
<linearGradient id="paint9_linear_1072_4904" x1="9.37031" y1="19.7243" x2="8.70508" y2="19.7243" gradientUnits="userSpaceOnUse">
<stop stop-color="#FF8804"/>
<stop offset="1" stop-color="#FF8804" stop-opacity="0"/>
</linearGradient>
<linearGradient id="paint10_linear_1072_4904" x1="6.45516" y1="21.986" x2="6.45516" y2="21.2668" gradientUnits="userSpaceOnUse">
<stop stop-color="#FF8804"/>
<stop offset="1" stop-color="#FF8804" stop-opacity="0"/>
</linearGradient>
<linearGradient id="paint11_linear_1072_4904" x1="3.54" y1="19.7243" x2="4.10781" y2="19.7243" gradientUnits="userSpaceOnUse">
<stop stop-color="#FFF0A9"/>
<stop offset="1" stop-color="#FFF0A9" stop-opacity="0"/>
</linearGradient>
<linearGradient id="paint12_linear_1072_4904" x1="6.45516" y1="17.4626" x2="6.45516" y2="18.1818" gradientUnits="userSpaceOnUse">
<stop stop-color="#FFF0A9"/>
<stop offset="1" stop-color="#FFF0A9" stop-opacity="0"/>
</linearGradient>
<linearGradient id="paint13_linear_1072_4904" x1="33.1315" y1="18.0518" x2="36.4829" y2="21.4032" gradientUnits="userSpaceOnUse">
<stop stop-color="#E9EDFF"/>
<stop offset="1" stop-color="#C4CBFF"/>
</linearGradient>
<linearGradient id="paint14_linear_1072_4904" x1="11.7698" y1="31.5634" x2="11.7698" y2="32.0523" gradientUnits="userSpaceOnUse">
<stop stop-color="#C4CBFF"/>
<stop offset="0.525" stop-color="#E9EDFF"/>
<stop offset="1" stop-color="#C4CBFF"/>
</linearGradient>
<linearGradient id="paint15_linear_1072_4904" x1="32.5158" y1="31.5535" x2="32.5158" y2="32.0802" gradientUnits="userSpaceOnUse">
<stop stop-color="#C4CBFF"/>
<stop offset="0.525" stop-color="#E9EDFF"/>
<stop offset="1" stop-color="#C4CBFF"/>
</linearGradient>
<linearGradient id="paint16_linear_1072_4904" x1="3.41609" y1="12.7732" x2="7.89414" y2="14.1295" gradientUnits="userSpaceOnUse">
<stop stop-color="#E9EDFF"/>
<stop offset="1" stop-color="#C4CBFF"/>
</linearGradient>
<linearGradient id="paint17_linear_1072_4904" x1="3.53977" y1="26.8287" x2="5.00242" y2="26.8287" gradientUnits="userSpaceOnUse">
<stop stop-color="#C4CBFF"/>
<stop offset="0.525" stop-color="#E9EDFF"/>
<stop offset="1" stop-color="#C4CBFF"/>
</linearGradient>
<linearGradient id="paint18_linear_1072_4904" x1="5.43773" y1="26.8287" x2="6.90047" y2="26.8287" gradientUnits="userSpaceOnUse">
<stop stop-color="#C4CBFF"/>
<stop offset="0.525" stop-color="#E9EDFF"/>
<stop offset="1" stop-color="#C4CBFF"/>
</linearGradient>
<linearGradient id="paint19_linear_1072_4904" x1="7.33578" y1="26.8287" x2="8.79852" y2="26.8287" gradientUnits="userSpaceOnUse">
<stop stop-color="#C4CBFF"/>
<stop offset="0.525" stop-color="#E9EDFF"/>
<stop offset="1" stop-color="#C4CBFF"/>
</linearGradient>
<linearGradient id="paint20_linear_1072_4904" x1="9.23375" y1="26.8287" x2="10.6965" y2="26.8287" gradientUnits="userSpaceOnUse">
<stop stop-color="#C4CBFF"/>
<stop offset="0.525" stop-color="#E9EDFF"/>
<stop offset="1" stop-color="#C4CBFF"/>
</linearGradient>
<linearGradient id="paint21_linear_1072_4904" x1="12.1482" y1="26.8287" x2="13.6109" y2="26.8287" gradientUnits="userSpaceOnUse">
<stop stop-color="#C4CBFF"/>
<stop offset="0.525" stop-color="#E9EDFF"/>
<stop offset="1" stop-color="#C4CBFF"/>
</linearGradient>
<linearGradient id="paint22_linear_1072_4904" x1="14.0462" y1="26.8287" x2="15.5089" y2="26.8287" gradientUnits="userSpaceOnUse">
<stop stop-color="#C4CBFF"/>
<stop offset="0.525" stop-color="#E9EDFF"/>
<stop offset="1" stop-color="#C4CBFF"/>
</linearGradient>
<linearGradient id="paint23_linear_1072_4904" x1="15.9442" y1="26.8287" x2="17.407" y2="26.8287" gradientUnits="userSpaceOnUse">
<stop stop-color="#C4CBFF"/>
<stop offset="0.525" stop-color="#E9EDFF"/>
<stop offset="1" stop-color="#C4CBFF"/>
</linearGradient>
<linearGradient id="paint24_linear_1072_4904" x1="17.8422" y1="26.8287" x2="19.3049" y2="26.8287" gradientUnits="userSpaceOnUse">
<stop stop-color="#C4CBFF"/>
<stop offset="0.525" stop-color="#E9EDFF"/>
<stop offset="1" stop-color="#C4CBFF"/>
</linearGradient>
<linearGradient id="paint25_linear_1072_4904" x1="20.7566" y1="26.8287" x2="22.2194" y2="26.8287" gradientUnits="userSpaceOnUse">
<stop stop-color="#C4CBFF"/>
<stop offset="0.525" stop-color="#E9EDFF"/>
<stop offset="1" stop-color="#C4CBFF"/>
</linearGradient>
<linearGradient id="paint26_linear_1072_4904" x1="22.6547" y1="26.8287" x2="24.1173" y2="26.8287" gradientUnits="userSpaceOnUse">
<stop stop-color="#C4CBFF"/>
<stop offset="0.525" stop-color="#E9EDFF"/>
<stop offset="1" stop-color="#C4CBFF"/>
</linearGradient>
<linearGradient id="paint27_linear_1072_4904" x1="24.5527" y1="26.8287" x2="26.0154" y2="26.8287" gradientUnits="userSpaceOnUse">
<stop stop-color="#C4CBFF"/>
<stop offset="0.525" stop-color="#E9EDFF"/>
<stop offset="1" stop-color="#C4CBFF"/>
</linearGradient>
<linearGradient id="paint28_linear_1072_4904" x1="26.4507" y1="26.8287" x2="27.9134" y2="26.8287" gradientUnits="userSpaceOnUse">
<stop stop-color="#C4CBFF"/>
<stop offset="0.525" stop-color="#E9EDFF"/>
<stop offset="1" stop-color="#C4CBFF"/>
</linearGradient>
<linearGradient id="paint29_linear_1072_4904" x1="29.3651" y1="26.8287" x2="30.8278" y2="26.8287" gradientUnits="userSpaceOnUse">
<stop stop-color="#C4CBFF"/>
<stop offset="0.525" stop-color="#E9EDFF"/>
<stop offset="1" stop-color="#C4CBFF"/>
</linearGradient>
<linearGradient id="paint30_linear_1072_4904" x1="31.2631" y1="26.8287" x2="32.7259" y2="26.8287" gradientUnits="userSpaceOnUse">
<stop stop-color="#C4CBFF"/>
<stop offset="0.525" stop-color="#E9EDFF"/>
<stop offset="1" stop-color="#C4CBFF"/>
</linearGradient>
<linearGradient id="paint31_linear_1072_4904" x1="33.1611" y1="26.8287" x2="34.6238" y2="26.8287" gradientUnits="userSpaceOnUse">
<stop stop-color="#C4CBFF"/>
<stop offset="0.525" stop-color="#E9EDFF"/>
<stop offset="1" stop-color="#C4CBFF"/>
</linearGradient>
<linearGradient id="paint32_linear_1072_4904" x1="35.0591" y1="26.8287" x2="36.5219" y2="26.8287" gradientUnits="userSpaceOnUse">
<stop stop-color="#C4CBFF"/>
<stop offset="0.525" stop-color="#E9EDFF"/>
<stop offset="1" stop-color="#C4CBFF"/>
</linearGradient>
<linearGradient id="paint33_linear_1072_4904" x1="16.7579" y1="5.58446" x2="27.7482" y2="16.5747" gradientUnits="userSpaceOnUse">
<stop stop-color="#32365C"/>
<stop offset="1" stop-color="#32365C" stop-opacity="0"/>
</linearGradient>
<linearGradient id="paint34_linear_1072_4904" x1="15.9906" y1="4.81961" x2="23.8158" y2="12.6448" gradientUnits="userSpaceOnUse">
<stop stop-color="#A1DDFF"/>
<stop offset="1" stop-color="#1C83FF"/>
</linearGradient>
<radialGradient id="paint35_radial_1072_4904" cx="0" cy="0" r="1" gradientUnits="userSpaceOnUse" gradientTransform="translate(19.7644 8.57477) scale(5.23398)">
<stop offset="0.819" stop-color="#1977E8" stop-opacity="0"/>
<stop offset="1" stop-color="#1977E8"/>
</radialGradient>
<radialGradient id="paint36_radial_1072_4904" cx="0" cy="0" r="1" gradientUnits="userSpaceOnUse" gradientTransform="translate(20.2604 9.07078) scale(5.23398)">
<stop offset="0.819" stop-color="#ABE1FF" stop-opacity="0"/>
<stop offset="1" stop-color="#ABE1FF"/>
</radialGradient>
<linearGradient id="paint37_linear_1072_4904" x1="18.4717" y1="7.3007" x2="21.703" y2="10.532" gradientUnits="userSpaceOnUse">
<stop stop-color="#E9EDFF"/>
<stop offset="1" stop-color="#C4CBFF"/>
</linearGradient>
</defs>
</svg>
