<svg width="24" height="24" viewBox="0 0 24 24" fill="none" xmlns="http://www.w3.org/2000/svg">
<path d="M11.4993 17.5C11.4991 18.4909 11.7448 19.4664 12.2142 20.339C12.6837 21.2116 13.3624 21.9541 14.1893 22.5H3.76434C3.40978 22.5004 3.0592 22.4253 2.73593 22.2796C2.41266 22.134 2.12412 21.9211 1.8895 21.6553C1.65488 21.3895 1.47957 21.0767 1.37522 20.7378C1.27088 20.399 1.2399 20.0418 1.28434 19.69L2.78434 7.69C2.85989 7.08547 3.15358 6.52933 3.61025 6.12607C4.06691 5.7228 4.65511 5.50017 5.26434 5.5H6.49934V8.5C6.49934 8.63261 6.55202 8.75979 6.64579 8.85355C6.73956 8.94732 6.86674 9 6.99934 9C7.13195 9 7.25913 8.94732 7.3529 8.85355C7.44667 8.75979 7.49934 8.63261 7.49934 8.5V5.5H13.4993V8.5C13.4993 8.63261 13.552 8.75979 13.6458 8.85355C13.7396 8.94732 13.8667 9 13.9993 9C14.132 9 14.2591 8.94732 14.3529 8.85355C14.4467 8.75979 14.4993 8.63261 14.4993 8.5V5.5H15.7343C16.3436 5.50017 16.9318 5.7228 17.3884 6.12607C17.8451 6.52933 18.1388 7.08547 18.2143 7.69L18.7043 11.62C17.8324 11.4431 16.932 11.462 16.0682 11.6753C15.2044 11.8887 14.3987 12.2912 13.7094 12.8538C13.0201 13.4163 12.4642 14.1249 12.082 14.9284C11.6998 15.7319 11.5008 16.6102 11.4993 17.5ZM14.4993 5.5H13.4993C13.4993 4.70435 13.1833 3.94129 12.6207 3.37868C12.0581 2.81607 11.295 2.5 10.4993 2.5C9.70369 2.5 8.94063 2.81607 8.37802 3.37868C7.81541 3.94129 7.49934 4.70435 7.49934 5.5H6.49934C6.49934 4.43913 6.92077 3.42172 7.67092 2.67157C8.42106 1.92143 9.43848 1.5 10.4993 1.5C11.5602 1.5 12.5776 1.92143 13.3278 2.67157C14.0779 3.42172 14.4993 4.43913 14.4993 5.5Z" fill="#0D0D0D"/>
<path d="M17.499 12.5C16.5101 12.5 15.5434 12.7932 14.7212 13.3427C13.8989 13.8921 13.2581 14.673 12.8796 15.5866C12.5012 16.5002 12.4022 17.5055 12.5951 18.4755C12.788 19.4454 13.2642 20.3363 13.9635 21.0355C14.6628 21.7348 15.5537 22.211 16.5236 22.4039C17.4935 22.5969 18.4988 22.4978 19.4124 22.1194C20.3261 21.741 21.107 21.1001 21.6564 20.2779C22.2058 19.4556 22.499 18.4889 22.499 17.5C22.4976 16.1744 21.9703 14.9034 21.033 13.9661C20.0956 13.0287 18.8247 12.5015 17.499 12.5ZM18.999 18H17.999V19C17.999 19.1326 17.9463 19.2598 17.8526 19.3536C17.7588 19.4473 17.6316 19.5 17.499 19.5C17.3664 19.5 17.2392 19.4473 17.1455 19.3536C17.0517 19.2598 16.999 19.1326 16.999 19V18H15.999C15.8664 18 15.7392 17.9473 15.6455 17.8536C15.5517 17.7598 15.499 17.6326 15.499 17.5C15.499 17.3674 15.5517 17.2402 15.6455 17.1464C15.7392 17.0527 15.8664 17 15.999 17H16.999V16C16.999 15.8674 17.0517 15.7402 17.1455 15.6464C17.2392 15.5527 17.3664 15.5 17.499 15.5C17.6316 15.5 17.7588 15.5527 17.8526 15.6464C17.9463 15.7402 17.999 15.8674 17.999 16V17H18.999C19.1316 17 19.2588 17.0527 19.3526 17.1464C19.4463 17.2402 19.499 17.3674 19.499 17.5C19.499 17.6326 19.4463 17.7598 19.3526 17.8536C19.2588 17.9473 19.1316 18 18.999 18Z" fill="#0D0D0D"/>
</svg>
