<svg width="32" height="32" viewBox="0 0 32 32" fill="none" xmlns="http://www.w3.org/2000/svg">
<path d="M28.0001 14.6334V10.6667C28.0001 9.95945 27.7191 9.28117 27.219 8.78107C26.7189 8.28098 26.0407 8.00002 25.3334 8.00002H17.3334V6.25069C17.7401 5.88536 18.0001 5.36002 18.0001 4.77069C18.0001 4.24026 17.7894 3.73155 17.4143 3.35648C17.0392 2.9814 16.5305 2.77069 16.0001 2.77069C15.4696 2.77069 14.9609 2.9814 14.5859 3.35648C14.2108 3.73155 14.0001 4.24026 14.0001 4.77069C14.0001 5.36002 14.2601 5.88536 14.6667 6.25069V8.00002H6.66675C5.9595 8.00002 5.28123 8.28098 4.78113 8.78107C4.28103 9.28117 4.00008 9.95945 4.00008 10.6667V14.664L3.90408 14.6707C3.56793 14.6946 3.25336 14.8451 3.02375 15.0918C2.79414 15.3385 2.66657 15.663 2.66675 16V18.6667C2.66675 19.0203 2.80722 19.3595 3.05727 19.6095C3.30732 19.8595 3.64646 20 4.00008 20V26.6667C4.00008 27.3739 4.28103 28.0522 4.78113 28.5523C5.28123 29.0524 5.9595 29.3334 6.66675 29.3334H25.3334C26.0407 29.3334 26.7189 29.0524 27.219 28.5523C27.7191 28.0522 28.0001 27.3739 28.0001 26.6667V20C28.3537 20 28.6928 19.8595 28.9429 19.6095C29.1929 19.3595 29.3334 19.0203 29.3334 18.6667V16.0827C29.3489 15.8758 29.316 15.6681 29.2374 15.476C28.9681 14.8254 28.3907 14.6694 28.0001 14.6334ZM9.33342 16C9.33342 14.528 10.2294 13.3334 11.3334 13.3334C12.4374 13.3334 13.3334 14.528 13.3334 16C13.3334 17.472 12.4374 18.6667 11.3334 18.6667C10.2294 18.6667 9.33342 17.472 9.33342 16ZM21.3307 24C19.9961 23.996 10.6667 24 10.6667 24V21.3334C10.6667 21.3334 20.0014 21.3307 21.3361 21.3334L21.3307 24ZM20.6667 18.6667C19.5627 18.6667 18.6667 17.472 18.6667 16C18.6667 14.528 19.5627 13.3334 20.6667 13.3334C21.7707 13.3334 22.6667 14.528 22.6667 16C22.6667 17.472 21.7707 18.6667 20.6667 18.6667Z" fill="#31D366"/>
</svg>
