<svg width="35" height="35" viewBox="0 0 35 35" fill="none" xmlns="http://www.w3.org/2000/svg">
<path d="M30.1562 15.9336V11.75C30.1562 11.0041 29.8599 10.2887 29.3325 9.76125C28.805 9.23381 28.0897 8.93749 27.3438 8.93749H18.9062V7.09249C19.3352 6.70718 19.6094 6.15312 19.6094 5.53155C19.6094 4.97211 19.3871 4.43559 18.9916 4.04C18.596 3.64442 18.0594 3.42218 17.5 3.42218C16.9406 3.42218 16.404 3.64442 16.0084 4.04C15.6129 4.43559 15.3906 4.97211 15.3906 5.53155C15.3906 6.15312 15.6648 6.70718 16.0938 7.09249V8.93749H7.65625C6.91033 8.93749 6.19496 9.23381 5.66751 9.76125C5.14007 10.2887 4.84375 11.0041 4.84375 11.75V15.9659L4.7425 15.973C4.38797 15.9982 4.05619 16.1569 3.81402 16.4171C3.57186 16.6773 3.43731 17.0196 3.4375 17.375V20.1875C3.4375 20.5605 3.58566 20.9181 3.84938 21.1819C4.1131 21.4456 4.47079 21.5937 4.84375 21.5937V28.625C4.84375 29.3709 5.14007 30.0863 5.66751 30.6137C6.19496 31.1412 6.91033 31.4375 7.65625 31.4375H27.3438C28.0897 31.4375 28.805 31.1412 29.3325 30.6137C29.8599 30.0863 30.1562 29.3709 30.1562 28.625V21.5937C30.5292 21.5937 30.8869 21.4456 31.1506 21.1819C31.4143 20.9181 31.5625 20.5605 31.5625 20.1875V17.4622C31.5788 17.2439 31.5441 17.0249 31.4612 16.8223C31.1772 16.1361 30.5683 15.9716 30.1562 15.9336ZM10.4688 17.375C10.4688 15.8225 11.4138 14.5625 12.5781 14.5625C13.7425 14.5625 14.6875 15.8225 14.6875 17.375C14.6875 18.9275 13.7425 20.1875 12.5781 20.1875C11.4138 20.1875 10.4688 18.9275 10.4688 17.375ZM23.1222 25.8125C21.7145 25.8083 11.875 25.8125 11.875 25.8125V23C11.875 23 21.7202 22.9972 23.1278 23L23.1222 25.8125ZM22.4219 20.1875C21.2575 20.1875 20.3125 18.9275 20.3125 17.375C20.3125 15.8225 21.2575 14.5625 22.4219 14.5625C23.5863 14.5625 24.5312 15.8225 24.5312 17.375C24.5312 18.9275 23.5863 20.1875 22.4219 20.1875Z" fill="#ECF4FF"/>
</svg>
