<svg width="32" height="32" viewBox="0 0 32 32" fill="none" xmlns="http://www.w3.org/2000/svg">
<path d="M29.1875 9.44125H27.2237C25.5534 5.47538 21.8756 2.59332 17.6416 2.04288C13.4457 1.4835 9.32306 3.0985 6.62594 6.3495C5.83306 7.30532 5.20413 8.34444 4.74363 9.44125H2.8125C1.26163 9.44125 0 10.7029 0 12.2538V16.0038C0 17.5546 1.26163 18.8163 2.8125 18.8163H6.66256L6.25975 17.5867C5.08694 14.0051 5.74706 10.3458 8.06975 7.547C10.3522 4.79582 13.8376 3.43444 17.3981 3.90138C21.1635 4.39188 24.4319 7.05482 25.7269 10.6873L25.7348 10.7083C25.9431 11.2613 26.0905 11.8354 26.1742 12.4204C26.4553 14.1736 26.2951 15.9506 25.7119 17.5593L25.7078 17.5704C24.2603 21.6804 20.3669 24.4413 16.0183 24.4413C14.4573 24.4413 13.1875 25.7029 13.1875 27.2538C13.1875 28.8046 14.4491 30.0663 16 30.0663C17.5509 30.0663 18.8125 28.8046 18.8125 27.2538V25.9894C22.5559 25.0996 25.7001 22.4461 27.2114 18.8162H29.1875C30.7384 18.8162 32 17.5546 32 16.0037V12.2537C32 10.7028 30.7384 9.44125 29.1875 9.44125Z" fill="url(#paint0_linear_14_762)"/>
<path d="M7.5625 20.6913V22.5663H16C20.6527 22.5663 24.4375 18.7814 24.4375 14.1288C24.4375 9.47607 20.6527 5.69125 16 5.69125C11.3473 5.69125 7.5625 9.47607 7.5625 14.1288C7.56195 16.019 8.19648 17.8545 9.36425 19.3409C9.13813 20.1309 8.41669 20.6913 7.5625 20.6913ZM18.8125 13.1913H20.6875V15.0663H18.8125V13.1913ZM15.0625 13.1913H16.9375V15.0663H15.0625V13.1913ZM11.3125 13.1913H13.1875V15.0663H11.3125V13.1913Z" fill="url(#paint1_linear_14_762)"/>
<defs>
<linearGradient id="paint0_linear_14_762" x1="32" y1="16" x2="0" y2="16" gradientUnits="userSpaceOnUse">
<stop stop-color="#5495FC"/>
<stop offset="1" stop-color="#31D366"/>
</linearGradient>
<linearGradient id="paint1_linear_14_762" x1="24.4375" y1="14.1288" x2="7.5625" y2="14.1288" gradientUnits="userSpaceOnUse">
<stop stop-color="#5495FC"/>
<stop offset="1" stop-color="#31D366"/>
</linearGradient>
</defs>
</svg>
