<svg width="24" height="24" viewBox="0 0 24 24" fill="none" xmlns="http://www.w3.org/2000/svg">
<rect x="0.75" y="0.75" width="22.5" height="22.5" stroke="#F8F8F9" stroke-width="1.5"/>
<path d="M16.3997 2H2.80039C2.35835 2 2 2.35824 2 2.80015V16.3954C2 16.8373 2.35835 17.1956 2.80039 17.1956H16.3997C16.8418 17.1956 17.2001 16.8373 17.2001 16.3954V2.80015C17.2001 2.35824 16.8418 2 16.3997 2Z" fill="#1E1B39"/>
<path d="M16.5521 20.3951H12.2476V21.9947H16.5521V20.3951Z" fill="#1E1B39"/>
<path d="M8.40058 18.3955H6.7998V21.2009C6.80013 21.4129 6.8846 21.6161 7.03467 21.7659C7.18473 21.9157 7.38814 21.9998 7.6002 21.9998H10.4003V20.3947H8.40058V18.3955Z" fill="#1E1B39"/>
<path d="M20.4006 20.3948H18.4009V21.9939H21.201C21.413 21.9939 21.6162 21.9097 21.7661 21.7599C21.916 21.61 22.0002 21.4068 22.0002 21.1949V18.3895H20.4006V20.3948Z" fill="#1E1B39"/>
<path d="M22 12.2446H20.4004V16.5479H22V12.2446Z" fill="#1E1B39"/>
<path d="M21.201 6.79822H18.4009V8.39852H20.4006V10.3977H22.0002V7.59226C21.9986 7.38132 21.9137 7.17955 21.7641 7.03084C21.6144 6.88214 21.412 6.79853 21.201 6.79822Z" fill="#1E1B39"/>
</svg>
