<svg width="20" height="20" viewBox="0 0 20 20" fill="none" xmlns="http://www.w3.org/2000/svg">
<path d="M8.37245 7.78422H12.0149C12.0924 7.78404 12.1691 7.79916 12.2408 7.8287C12.3124 7.85824 12.3775 7.90163 12.4323 7.95638C12.4871 8.01113 12.5306 8.07616 12.5603 8.14775C12.5899 8.21933 12.6052 8.29607 12.6051 8.37355V8.69066C12.6051 8.76811 12.5898 8.84479 12.5602 8.91633C12.5305 8.98786 12.487 9.05284 12.4322 9.10754C12.3773 9.16224 12.3123 9.20559 12.2407 9.23511C12.1691 9.26462 12.0923 9.27972 12.0149 9.27955H8.37245C8.29496 9.27987 8.21817 9.26487 8.14651 9.23541C8.07484 9.20594 8.0097 9.1626 7.95485 9.10787C7.9 9.05314 7.8565 8.9881 7.82688 8.9165C7.79725 8.8449 7.78208 8.76815 7.78222 8.69066V8.37355C7.78208 8.29604 7.79725 8.21927 7.82687 8.14764C7.85649 8.07602 7.89997 8.01095 7.95482 7.95619C8.00967 7.90142 8.0748 7.85803 8.14647 7.82852C8.21814 7.79901 8.29494 7.78395 8.37245 7.78422ZM3.92334 6.20555C3.52978 6.20555 3.21289 6.54599 3.21289 6.96933V16.8189C3.21289 17.2424 3.52978 17.5829 3.92334 17.5829H12.6096C11.9027 16.8051 11.4662 15.7738 11.4662 14.6398C11.4662 12.2218 13.4267 10.2613 15.8458 10.2613C16.2429 10.2613 16.6249 10.3191 16.9907 10.4176V6.96933C16.9907 6.54599 16.6733 6.20555 16.28 6.20555H3.92334ZM10.7902 2.36888L11.2256 5.32599H16.2627C16.5451 5.32599 16.7207 5.01133 16.5809 4.75777L15.2962 2.93622C15.1018 2.58533 14.7396 2.3691 14.3484 2.3691H10.7902V2.36888ZM5.85511 2.36888C5.46356 2.36888 5.10156 2.5851 4.90689 2.93599L3.62222 4.75755C3.48245 5.0111 3.65934 5.32577 3.94089 5.32577H8.978L9.41289 2.36866L5.85511 2.36888Z" fill="white"/>
<path d="M17.328 13.0273C17.4033 13.0295 17.4737 13.056 17.5282 13.1107L17.7911 13.3738C17.9151 13.4971 17.8986 13.7115 17.7562 13.8538L15.4451 16.1649C15.334 16.276 15.1209 16.2855 15.0006 16.1649L13.9309 15.0953C13.7886 14.9533 13.7724 14.7389 13.8964 14.6153L14.1591 14.3522C14.2829 14.2298 14.4969 14.2447 14.6395 14.3869L15.2229 14.9702L17.0491 13.1451C17.1286 13.0655 17.232 13.0251 17.328 13.0273ZM15.844 11.2878C13.9922 11.2878 12.4922 12.7878 12.4922 14.6398C12.4922 16.4904 13.9922 17.9913 15.844 17.9913C17.6946 17.9913 19.196 16.4904 19.196 14.6398C19.196 12.7878 17.6946 11.2878 15.844 11.2878Z" fill="white"/>
</svg>
