<svg width="24" height="24" viewBox="0 0 24 24" fill="none" xmlns="http://www.w3.org/2000/svg">
<g opacity="0.64">
<path d="M17.7628 7.45041C17.9167 7.2913 18.0019 7.0782 18 6.85701C17.998 6.63582 17.9092 6.42423 17.7525 6.26782C17.5958 6.11141 17.3838 6.02269 17.1623 6.02076C16.9407 6.01884 16.7272 6.10387 16.5679 6.25754L12.0104 10.8071L7.45292 6.25754C7.37496 6.17697 7.28172 6.1127 7.17861 6.06849C7.07551 6.02428 6.96462 6.00101 6.85241 6.00003C6.74021 5.99906 6.62893 6.0204 6.52507 6.06282C6.42122 6.10524 6.32686 6.16788 6.24752 6.24709C6.16817 6.3263 6.10542 6.42049 6.06293 6.52416C6.02044 6.62784 5.99906 6.73893 6.00003 6.85094C6.00101 6.96295 6.02432 7.07365 6.06861 7.17658C6.1129 7.2795 6.17728 7.37259 6.25799 7.45041L10.8155 12L6.25799 16.5496C6.17728 16.6274 6.1129 16.7205 6.06861 16.8234C6.02432 16.9263 6.00101 17.037 6.00003 17.1491C5.99906 17.2611 6.02044 17.3722 6.06293 17.4758C6.10542 17.5795 6.16817 17.6737 6.24752 17.7529C6.32686 17.8321 6.42122 17.8948 6.52507 17.9372C6.62893 17.9796 6.74021 18.0009 6.85241 18C6.96462 17.999 7.07551 17.9757 7.17861 17.9315C7.28172 17.8873 7.37496 17.823 7.45292 17.7425L12.0104 13.1929L16.5679 17.7425C16.7272 17.8961 16.9407 17.9812 17.1623 17.9792C17.3838 17.9773 17.5958 17.8886 17.7525 17.7322C17.9092 17.5758 17.998 17.3642 18 17.143C18.0019 16.9218 17.9167 16.7087 17.7628 16.5496L13.2053 12L17.7628 7.45041Z" fill="#0D0D0D"/>
</g>
</svg>
