<svg width="32" height="32" viewBox="0 0 32 32" fill="none" xmlns="http://www.w3.org/2000/svg">
<path d="M16.9375 15.7286V22.8708L23.1228 19.2998V12.1576L16.9375 15.7286ZM9.8147 10.5338L16 14.1049L22.1853 10.5338L16 6.96265L9.8147 10.5338ZM15.0625 15.7286L8.8772 12.1576V19.2998L15.0625 22.8708V15.7286Z" fill="url(#paint0_linear_11_384)"/>
<path d="M28.2329 5.37213C27.5588 5.37213 26.9412 5.61756 26.4637 6.02313L16.0314 0L5.56141 6.04481C5.08054 5.62638 4.45316 5.37213 3.76716 5.37213C2.25766 5.37213 1.02966 6.60012 1.02966 8.10962C1.02966 9.31256 1.80998 10.3361 2.89079 10.7024V22.76L13.2547 28.7436C13.2216 28.9145 13.2048 29.0883 13.2047 29.2624C13.2047 30.7719 14.4327 31.9999 15.9422 31.9999C17.4517 31.9999 18.6797 30.7719 18.6797 29.2624C18.6797 29.1177 18.6682 28.9756 18.6464 28.8368L29.1719 22.7599V10.6812C30.2202 10.2972 30.9704 9.28938 30.9704 8.10962C30.9704 6.60019 29.7424 5.37213 28.2329 5.37213ZM27.294 21.6759L17.7338 27.1954C17.2532 26.7784 16.6269 26.5251 15.9422 26.5251C15.2914 26.5251 14.6933 26.7537 14.223 27.1343L4.76873 21.6759V10.6565C5.78404 10.2558 6.5046 9.26562 6.5046 8.10962C6.5046 7.96606 6.49335 7.82513 6.47198 7.6875L16.0314 2.16838L25.5339 7.65469C25.5085 7.805 25.4956 7.95717 25.4954 8.10962C25.4954 9.28938 26.2456 10.2972 27.294 10.6812V21.6759Z" fill="url(#paint1_linear_11_384)"/>
<defs>
<linearGradient id="paint0_linear_11_384" x1="23.1228" y1="14.9167" x2="8.8772" y2="14.9167" gradientUnits="userSpaceOnUse">
<stop stop-color="#5495FC"/>
<stop offset="1" stop-color="#31D366"/>
</linearGradient>
<linearGradient id="paint1_linear_11_384" x1="30.9704" y1="15.9999" x2="1.02966" y2="15.9999" gradientUnits="userSpaceOnUse">
<stop stop-color="#5495FC"/>
<stop offset="1" stop-color="#31D366"/>
</linearGradient>
</defs>
</svg>
