<svg width="32" height="32" viewBox="0 0 32 32" fill="none" xmlns="http://www.w3.org/2000/svg">
<g clip-path="url(#clip0_11_1398)">
<path d="M11.7002 18.9348L15.6082 16.6784V21.191L11.7002 23.4473V18.9347V18.9348ZM11.7002 13.0648L15.6082 15.3211V10.8085L11.7002 8.55225V13.0648ZM16.0001 5.6173L12.0921 7.87358L16.0001 10.1298L19.9081 7.87358L16.0001 5.6173ZM11.3084 13.7435L7.40042 15.9998L11.3084 18.2561L15.2164 15.9998L11.3084 13.7435ZM16.3919 15.3211L20.2999 13.0647V8.55225L16.3919 10.8085V15.3211ZM7.00852 21.191L10.9165 23.4474V18.9348L7.00852 16.6785V21.191ZM16.3918 21.191L20.2999 23.4474V18.9348L16.3919 16.6786V21.1911L16.3918 21.191ZM20.6916 18.256L24.5996 15.9998L20.6916 13.7435L16.7836 15.9998L20.6916 18.256ZM21.0835 23.4473L24.9915 21.191V16.6785L21.0835 18.9347V23.4473H21.0835ZM30.6291 14.6281C29.8738 14.6281 29.2573 15.2445 29.2573 15.9998C29.2573 16.5971 29.6435 17.1062 30.1784 17.2937C30.1734 17.3466 30.1692 17.3993 30.1636 17.4524C29.579 23.2166 25.4354 28.142 19.8529 29.7087C19.8034 29.7226 19.7571 29.7461 19.7167 29.7779C19.6763 29.8097 19.6425 29.8491 19.6173 29.894C19.5922 29.9388 19.576 29.9882 19.5699 30.0392C19.5638 30.0903 19.5678 30.142 19.5817 30.1915C19.5956 30.2411 19.6192 30.2873 19.6509 30.3278C19.6827 30.3682 19.7222 30.4019 19.767 30.4271C19.8118 30.4523 19.8612 30.4684 19.9122 30.4745C19.9633 30.4806 20.0151 30.4766 20.0646 30.4627C22.9516 29.6524 25.5087 28.0083 27.4594 25.7081C29.4314 23.3829 30.636 20.5555 30.9426 17.5328C30.9498 17.4646 30.9553 17.3969 30.9616 17.3289C31.5564 17.1793 31.999 16.6402 31.999 15.9998C31.999 15.2445 31.3844 14.6281 30.6291 14.6281ZM17.4535 1.83513C17.4006 1.82958 17.3473 1.82534 17.2942 1.82037C17.1083 2.35641 16.6002 2.74139 15.9991 2.74139C15.2419 2.74139 14.6292 2.12862 14.6292 1.37152C14.6292 0.614422 15.2419 -0.000244141 15.9991 -0.000244141C16.6425 -0.000244141 17.1792 0.440706 17.3283 1.03715C17.3969 1.04336 17.4657 1.04904 17.5339 1.05616C20.5565 1.36277 23.384 2.56729 25.7092 4.53929C28.0094 6.49013 29.6535 9.04721 30.4638 11.9342C30.4894 12.0334 30.4751 12.1387 30.424 12.2274C30.3729 12.3162 30.289 12.3814 30.1904 12.4091C30.0918 12.4368 29.9863 12.4247 29.8964 12.3755C29.8066 12.3263 29.7396 12.2439 29.7098 12.1459C28.1431 6.56347 23.2177 2.41989 17.4535 1.83513ZM1.37079 17.3716C0.613624 17.3716 -0.000976562 16.757 -0.000976562 15.9998C-0.000976562 15.3575 0.441998 14.8193 1.03844 14.6704C1.04458 14.6025 1.0502 14.5343 1.05725 14.4668C1.36387 11.4432 2.56845 8.61534 4.54045 6.29009C6.49122 3.98986 9.04837 2.34622 11.9354 1.53694C12.035 1.51029 12.141 1.52395 12.2306 1.57498C12.3201 1.626 12.3859 1.71026 12.4138 1.80949C12.4416 1.90872 12.4292 2.01492 12.3792 2.10506C12.3292 2.19519 12.2457 2.26199 12.1468 2.29097C6.5645 3.85585 2.42092 8.78128 1.83623 14.5473C1.83074 14.5997 1.8265 14.6528 1.82154 14.7056C2.35718 14.8924 2.74256 15.4008 2.74256 15.9998C2.74256 16.757 2.12796 17.3716 1.37079 17.3716ZM17.3709 30.6281C17.3709 31.3853 16.7581 31.9999 15.9991 31.9999C15.3568 31.9999 14.8199 31.557 14.6713 30.9605C14.6036 30.9543 14.536 30.9488 14.4679 30.9417C11.4442 30.635 8.61617 29.4308 6.29106 27.4592C3.99057 25.5087 2.34647 22.9513 1.53621 20.0635C1.52232 20.014 1.51832 19.9623 1.52443 19.9112C1.53055 19.8602 1.54666 19.8108 1.57184 19.766C1.59703 19.7212 1.63079 19.6817 1.67122 19.65C1.71164 19.6182 1.75792 19.5947 1.80743 19.5808C1.85694 19.5669 1.90869 19.5629 1.95975 19.569C2.0108 19.5751 2.06015 19.5912 2.10497 19.6164C2.1498 19.6416 2.18923 19.6754 2.22101 19.7158C2.25278 19.7562 2.27629 19.8025 2.29018 19.852C3.85636 25.4344 8.78257 29.5781 14.5483 30.1627C14.6013 30.1682 14.6536 30.1724 14.7064 30.1774C14.8927 29.6417 15.4 29.2564 15.999 29.2564C16.758 29.2564 17.3708 29.871 17.3708 30.6282L17.3709 30.6281Z" fill="url(#paint0_linear_11_1398)"/>
</g>
<defs>
<linearGradient id="paint0_linear_11_1398" x1="31.999" y1="15.9998" x2="-0.000976562" y2="15.9998" gradientUnits="userSpaceOnUse">
<stop stop-color="#5495FC"/>
<stop offset="1" stop-color="#31D366"/>
</linearGradient>
<clipPath id="clip0_11_1398">
<rect width="32" height="32" fill="white"/>
</clipPath>
</defs>
</svg>
