<svg width="32" height="32" viewBox="0 0 32 32" fill="none" xmlns="http://www.w3.org/2000/svg">
<g clip-path="url(#clip0_11_1401)">
<path fill-rule="evenodd" clip-rule="evenodd" d="M15.1286 31.6806V25.0226C13.3382 25.1179 11.5807 25.5088 9.92193 26.1892C10.0954 26.588 10.2845 26.9799 10.4888 27.364C11.7398 29.7103 13.3596 31.2863 15.1287 31.6805L15.1286 31.6806ZM4.67504 27.3357C5.61661 26.5559 6.63608 25.8753 7.71728 25.3046C6.86888 22.8429 6.34618 19.9607 6.26301 16.8713H0C0.218548 20.9493 1.96156 24.6223 4.6696 27.3303L4.67504 27.3357V27.3357ZM0 15.1286H6.26308C6.34625 12.0392 6.86895 9.15703 7.71735 6.69528C6.63615 6.12461 5.61668 5.44397 4.67511 4.66415L4.66967 4.66959C1.96163 7.37763 0.218617 11.0506 6.96739e-05 15.1287L0 15.1286ZM5.98716 3.4895C7.51672 2.26368 9.27598 1.31274 11.1901 0.711119C10.36 1.54801 9.6085 2.59704 8.95697 3.81903C8.74022 4.2265 8.53895 4.64203 8.35361 5.06472C7.51981 4.61065 6.72791 4.08354 5.98723 3.48957L5.98716 3.4895ZM20.8099 0.711119C21.64 1.54801 22.3915 2.59704 23.0431 3.81903C23.2598 4.22649 23.4611 4.64199 23.6465 5.06465C24.4803 4.61059 25.2722 4.08347 26.0129 3.4895C24.4833 2.26375 22.724 1.31267 20.8099 0.711119ZM27.325 4.66415L27.3304 4.66952C30.0384 7.37756 31.7815 11.0506 32 15.1286H25.7369C25.6537 12.0392 25.131 9.15696 24.2826 6.69528C25.3639 6.1246 26.3834 5.44395 27.325 4.66415ZM32 16.8714H25.7369C25.6537 19.9608 25.131 22.8429 24.2826 25.3047C25.3639 25.8754 26.3834 26.556 27.325 27.3358L27.3304 27.3304C30.0384 24.6224 31.7815 20.9494 32 16.8714ZM26.0129 28.5105C24.4833 29.7363 22.724 30.6873 20.8099 31.2889C21.64 30.452 22.3915 29.403 23.0431 28.181C23.2599 27.7735 23.4612 27.358 23.6465 26.9353C24.4804 27.3894 25.2723 27.9165 26.013 28.5105L26.0129 28.5105ZM11.1901 31.2889C9.27598 30.6874 7.51672 29.7362 5.98709 28.5105C6.72781 27.9165 7.51973 27.3894 8.35354 26.9352C8.53891 27.3579 8.74019 27.7735 8.95697 28.1809C9.6085 29.4029 10.36 30.452 11.1901 31.2888V31.2889ZM9.3001 24.5668C11.1561 23.8107 13.1269 23.3749 15.1286 23.2779V16.8715H8.00645C8.08592 19.698 8.54944 22.3238 9.3001 24.5668ZM8.00645 15.1287H15.1286V8.7221C13.1269 8.6251 11.1561 8.1893 9.30017 7.43326C8.54951 9.67632 8.08592 12.302 8.00645 15.1287ZM9.92193 5.81071C11.5805 6.49117 13.3385 6.88211 15.1286 6.97734V0.319406C13.3596 0.713558 11.7397 2.28968 10.4887 4.63592C10.2845 5.01994 10.0954 5.41188 9.92193 5.81071ZM16.8714 0.319406C18.6403 0.713558 20.2603 2.28968 21.5113 4.63599C21.7155 5.02001 21.9046 5.41188 22.0781 5.81071C20.4195 6.49117 18.6615 6.88211 16.8714 6.97734V0.319406ZM22.6999 7.43326C20.8439 8.18927 18.8731 8.62506 16.8714 8.7221V15.1287H23.9935C23.9141 12.302 23.4506 9.67625 22.6999 7.43326ZM23.9936 16.8715H16.8715V23.2779C18.8732 23.3749 20.844 23.8107 22.7 24.5668C23.4506 22.3238 23.9142 19.698 23.9936 16.8715ZM22.0781 26.1893C20.4193 25.5089 18.6618 25.118 16.8714 25.0228V31.6807C18.6403 31.2865 20.2603 29.7105 21.5113 27.3641C21.7155 26.9801 21.9046 26.5882 22.0781 26.1893Z" fill="url(#paint0_linear_11_1401)"/>
</g>
<defs>
<linearGradient id="paint0_linear_11_1401" x1="32" y1="16" x2="0" y2="16" gradientUnits="userSpaceOnUse">
<stop stop-color="#5495FC"/>
<stop offset="1" stop-color="#31D366"/>
</linearGradient>
<clipPath id="clip0_11_1401">
<rect width="32" height="32" fill="white"/>
</clipPath>
</defs>
</svg>
