<svg width="72" height="72" viewBox="0 0 72 72" fill="none" xmlns="http://www.w3.org/2000/svg">
<path fill-rule="evenodd" clip-rule="evenodd" d="M72 36C72 16.1178 55.8822 0 36 0C16.1178 0 0 16.1178 0 36C0 55.8822 16.1178 72 36 72C55.8822 72 72 55.8822 72 36ZM31.5 36C31.5 51.7987 32.7721 65.2205 34.5416 70.0673C34.2075 69.7208 33.8464 69.2432 33.4653 68.5985C32.4675 66.9104 31.5299 64.3927 30.7274 61.183C29.1269 54.7809 28.125 45.8769 28.125 36C28.125 26.1232 29.1269 17.2191 30.7274 10.817C31.5299 7.6073 32.4675 5.08964 33.4653 3.40149C33.8463 2.75676 34.2075 2.27917 34.5416 1.93268C32.7721 6.77953 31.5 20.2013 31.5 36ZM38.5347 68.5985C38.1536 69.2432 37.7925 69.7208 37.4584 70.0673C39.2279 65.2205 40.5 51.7987 40.5 36C40.5 20.2013 39.2279 6.77954 37.4584 1.93268C37.7925 2.27916 38.1536 2.75676 38.5347 3.40149C39.5325 5.08964 40.4701 7.6073 41.2725 10.817C42.8731 17.2191 43.875 26.1232 43.875 36C43.875 45.8769 42.8731 54.7809 41.2725 61.183C40.4701 64.3927 39.5325 66.9104 38.5347 68.5985ZM32.7135 69.5242C32.3386 69.2142 31.9628 68.8484 31.587 68.4246C30.0957 66.7425 28.7013 64.2444 27.5074 61.0608C25.1229 54.702 23.625 45.8419 23.625 36C23.625 26.1581 25.1229 17.298 27.5074 10.9392C28.7013 7.75562 30.0957 5.25745 31.587 3.57539C31.9628 3.15155 32.3386 2.7858 32.7135 2.47576C29.3684 7.72679 27 20.7571 27 36C27 51.2429 29.3684 64.2732 32.7135 69.5242ZM39.2865 69.5242C39.6614 69.2142 40.0372 68.8484 40.413 68.4246C41.9043 66.7425 43.2987 64.2444 44.4926 61.0608C46.8771 54.702 48.375 45.8419 48.375 36C48.375 26.1581 46.8771 17.298 44.4926 10.9392C43.2987 7.75562 41.9043 5.25745 40.413 3.57539C40.0372 3.15155 39.6614 2.7858 39.2865 2.47576C42.6316 7.72678 45 20.7571 45 36C45 51.2429 42.6316 64.2732 39.2865 69.5242ZM24.2783 60.9527C26.1055 64.6072 28.2631 67.3251 30.582 68.9835C25.8237 63.4174 22.5 50.7437 22.5 36C22.5 21.2563 25.8237 8.58262 30.582 3.01649C28.2631 4.67488 26.1055 7.3928 24.2783 11.0473C21.1144 17.3751 19.125 26.1957 19.125 36C19.125 45.8043 21.1144 54.6249 24.2783 60.9527ZM47.7217 60.9527C45.8945 64.6072 43.7369 67.3251 41.418 68.9835C46.1763 63.4174 49.5 50.7437 49.5 36C49.5 21.2563 46.1763 8.58262 41.418 3.01649C43.7369 4.67488 45.8945 7.3928 47.7217 11.0473C50.8856 17.3751 52.875 26.1957 52.875 36C52.875 45.8043 50.8856 54.6249 47.7217 60.9527ZM28.2058 68.4592C25.5415 66.7435 23.107 64.1603 21.0441 60.8596C17.1008 54.5503 14.625 45.764 14.625 36C14.625 26.236 17.1008 17.4497 21.0441 11.1404C23.107 7.83968 25.5415 5.2565 28.2058 3.54081C22.1676 9.35102 18 21.7021 18 36C18 50.2979 22.1676 62.649 28.2058 68.4592ZM43.7942 68.4592C46.4585 66.7435 48.8929 64.1603 50.9559 60.8596C54.8992 54.5503 57.375 45.764 57.375 36C57.375 26.236 54.8992 17.4497 50.9559 11.1404C48.8929 7.83968 46.4585 5.2565 43.7942 3.54081C49.8324 9.35102 54 21.7021 54 36C54 50.2979 49.8324 62.649 43.7942 68.4592ZM17.8081 60.7808C20.0605 63.784 22.7028 66.2172 25.6119 67.9417C18.4142 61.9369 13.5 49.8867 13.5 36C13.5 22.1133 18.4142 10.0631 25.6119 4.05825C22.7028 5.78277 20.0605 8.21604 17.8081 11.2192C13.0816 17.5211 10.125 26.2788 10.125 36C10.125 45.7212 13.0816 54.4789 17.8081 60.7808ZM54.1919 60.7808C51.9395 63.784 49.2972 66.2172 46.3881 67.9418C53.5858 61.9369 58.5 49.8867 58.5 36C58.5 22.1133 53.5858 10.0631 46.3881 4.05824C49.2972 5.78276 51.9395 8.21604 54.1919 11.2192C58.9184 17.5211 61.875 26.2788 61.875 36C61.875 45.7212 58.9184 54.4789 54.1919 60.7808ZM22.7943 67.4075C12.6761 61.7872 5.625 49.9045 5.625 36C5.625 22.0955 12.6761 10.2128 22.7942 4.59249C14.5619 10.7593 9 22.5136 9 36C9 49.4864 14.562 61.2407 22.7943 67.4075ZM49.2057 67.4075C59.3239 61.7872 66.375 49.9045 66.375 36C66.375 22.0955 59.3239 10.2128 49.2057 4.59249C57.438 10.7593 63 22.5136 63 36C63 49.4864 57.438 61.2407 49.2057 67.4075ZM1.125 36C1.125 49.4418 8.7296 61.1075 19.8713 66.9294C10.6652 60.6456 4.5 49.1456 4.5 36C4.5 22.8544 10.6651 11.3544 19.8712 5.0706C8.7296 10.8926 1.125 22.5582 1.125 36ZM70.875 36C70.875 49.4418 63.2704 61.1075 52.1287 66.9294C61.3348 60.6456 67.5 49.1456 67.5 36C67.5 22.8544 61.3348 11.3544 52.1287 5.0706C63.2704 10.8925 70.875 22.5582 70.875 36ZM38.0657 61.3163C38.8726 54.8608 39.375 45.9096 39.375 36C39.375 26.0904 38.8726 17.1392 38.0657 10.6837C37.6612 7.44803 37.1854 4.88253 36.6727 3.1479C36.6358 3.02286 36.599 2.90347 36.5625 2.78964V69.2104C36.599 69.0965 36.6358 68.9771 36.6727 68.8521C37.1854 67.1175 37.6612 64.552 38.0657 61.3163ZM35.4375 2.78964V69.2104C35.401 69.0965 35.3642 68.9771 35.3273 68.8521C34.8146 67.1175 34.3388 64.552 33.9343 61.3163C33.1274 54.8608 32.625 45.9096 32.625 36C32.625 26.0904 33.1274 17.1392 33.9343 10.6837C34.3388 7.44803 34.8146 4.88253 35.3273 3.1479C35.3642 3.02286 35.401 2.90347 35.4375 2.78964Z" fill="url(#paint0_linear_12_23)"/>
<defs>
<linearGradient id="paint0_linear_12_23" x1="20.8125" y1="3.375" x2="47.8125" y2="74.25" gradientUnits="userSpaceOnUse">
<stop stop-color="white"/>
<stop offset="1" stop-color="white" stop-opacity="0"/>
</linearGradient>
</defs>
</svg>
