<svg width="104" height="104" viewBox="0 0 104 104" fill="none" xmlns="http://www.w3.org/2000/svg">
<g clip-path="url(#clip0_11_1361)">
<path d="M101.002 39.0407C100.689 39.1159 100.418 39.312 100.249 39.586C100.08 39.86 100.027 40.1897 100.1 40.5032C100.988 44.2738 101.438 48.1344 101.441 52.0082C101.425 65.1158 96.211 77.6821 86.9425 86.9507C77.674 96.2192 65.1077 101.433 52 101.449C41.2343 101.487 30.7576 97.9676 22.1975 91.4388C23.3468 89.7251 23.8061 87.6403 23.4831 85.6022C23.1602 83.5642 22.079 81.7235 20.4562 80.449C18.8333 79.1745 16.7888 78.5604 14.7323 78.7298C12.6758 78.8991 10.7593 79.8394 9.36681 81.3622C7.97435 82.885 7.20882 84.8778 7.22365 86.9412C7.23848 89.0046 8.03257 90.9862 9.44678 92.4888C10.861 93.9915 12.7908 94.9041 14.8496 95.0439C16.9083 95.1837 18.9438 94.5402 20.5481 93.2426C29.5611 100.181 40.6256 103.926 52 103.886C59.8359 103.878 67.5684 102.096 74.6181 98.6753C81.6678 95.2542 87.8519 90.2821 92.7072 84.1317C97.5625 77.9813 100.963 70.8119 102.654 63.1606C104.345 55.5093 104.283 47.5745 102.473 39.9507C102.436 39.7941 102.369 39.6462 102.276 39.5156C102.182 39.385 102.063 39.2742 101.927 39.1897C101.79 39.1051 101.638 39.0484 101.479 39.0228C101.32 38.9972 101.158 39.0033 101.002 39.0407ZM2.55938 52.0082C2.55991 43.2138 4.90604 34.5787 9.35588 26.9932C13.8057 19.4077 20.1982 13.1463 27.8743 8.85461C35.5504 4.5629 44.2322 2.39618 53.0247 2.57787C61.8172 2.75955 70.4021 5.28305 77.8944 9.8882C77.1211 11.5427 76.9973 13.4272 77.5476 15.1686C78.0979 16.91 79.2821 18.3812 80.8657 19.2909C82.4494 20.2005 84.3168 20.4822 86.0983 20.0802C87.8798 19.6783 89.4454 18.6219 90.4849 17.1203C91.5244 15.6188 91.9621 13.7816 91.7113 11.9726C91.4605 10.1637 90.5394 8.51485 89.1306 7.35279C87.7217 6.19072 85.9278 5.60015 84.1041 5.69803C82.2805 5.79592 80.5601 6.57513 79.2838 7.88132C71.425 3.02313 62.4114 0.351702 53.1746 0.14311C43.9377 -0.0654821 34.8128 2.19633 26.7427 6.69481C18.6726 11.1933 11.9502 17.7652 7.2702 25.7314C2.59021 33.6976 0.12242 42.769 0.121875 52.0082C0.117506 55.1751 0.405815 58.3356 0.983125 61.4494C1.03268 61.73 1.17964 61.984 1.39813 62.1669C1.61662 62.3497 1.89262 62.4495 2.1775 62.4488C2.2513 62.4487 2.32486 62.4406 2.39688 62.4244C2.71458 62.3671 2.99653 62.186 3.18085 61.9209C3.36517 61.6559 3.43679 61.3285 3.38 61.0107C2.83231 58.0412 2.55762 55.0278 2.55938 52.0082Z" fill="url(#paint0_radial_11_1361)"/>
<path d="M44.6875 43.9564V44.6876H59.3125V43.9564C59.1987 34.0764 44.8013 34.0764 44.6875 43.9564Z" fill="url(#paint1_radial_11_1361)"/>
<path d="M86.0843 26.6825C72.3693 26.8206 59.1743 18.3462 54.1287 14.69C53.5092 14.2424 52.7643 14.0015 52 14.0015C51.2356 14.0015 50.4908 14.2424 49.8712 14.69C44.8256 18.3462 31.5981 26.7881 17.9156 26.6825C17.4297 26.6776 16.9476 26.769 16.4971 26.9512C16.0466 27.1335 15.6366 27.403 15.2908 27.7444C14.9449 28.0857 14.67 28.4921 14.4818 28.9402C14.2936 29.3882 14.1959 29.869 14.1943 30.355C14.2025 49.1156 17.9562 75.9525 50.3506 92.3487C50.8614 92.6091 51.4266 92.7449 52 92.7449C52.5733 92.7449 53.1385 92.6091 53.6493 92.3487C86.0437 75.9525 89.7975 49.1156 89.8056 30.355C89.7983 29.3748 89.4023 28.4375 88.7046 27.749C88.007 27.0604 87.0646 26.6768 86.0843 26.6825ZM65.4062 63.7812C65.4062 65.3974 64.7642 66.9474 63.6214 68.0902C62.4786 69.233 60.9286 69.875 59.3125 69.875H44.6875C43.0713 69.875 41.5213 69.233 40.3785 68.0902C39.2357 66.9474 38.5937 65.3974 38.5937 63.7812V50.7812C38.5943 49.5961 38.9405 48.4368 39.5899 47.4454C40.2393 46.4539 41.1637 45.6734 42.25 45.1993V43.94C42.3962 30.8994 61.6037 30.8994 61.75 43.94V45.1993C62.8362 45.6734 63.7606 46.4539 64.41 47.4454C65.0594 48.4368 65.4056 49.5961 65.4062 50.7812V63.7812Z" fill="url(#paint2_radial_11_1361)"/>
<path d="M53.9955 55.8822C53.9775 55.7732 53.9826 55.6615 54.0106 55.5545C54.0386 55.4476 54.0888 55.3477 54.158 55.2615C54.4302 54.8679 54.5895 54.4074 54.6187 53.9298C54.6479 53.4522 54.5459 52.9757 54.3237 52.5519C54.1015 52.1281 53.7676 51.7732 53.3582 51.5255C52.9487 51.2779 52.4793 51.147 52.0008 51.147C51.5223 51.147 51.0529 51.2779 50.6435 51.5255C50.2341 51.7732 49.9002 52.1281 49.678 52.5519C49.4558 52.9757 49.3538 53.4522 49.383 53.9298C49.4122 54.4074 49.5715 54.8679 49.8436 55.2615C49.9125 55.3468 49.9626 55.4457 49.9906 55.5517C50.0186 55.6577 50.0239 55.7684 50.0061 55.8766C49.8152 56.828 49.2749 59.5482 48.8938 61.4365C48.8475 61.672 48.8539 61.9149 48.9126 62.1476C48.9714 62.3803 49.0809 62.5972 49.2334 62.7825C49.3859 62.9679 49.5776 63.1172 49.7946 63.2196C50.0117 63.3221 50.2487 63.3752 50.4888 63.3751H53.5113C53.7517 63.3752 53.9892 63.3219 54.2066 63.2191C54.424 63.1163 54.6158 62.9666 54.7683 62.7807C54.9208 62.5948 55.0302 62.3773 55.0885 62.144C55.1467 61.9107 55.1525 61.6674 55.1054 61.4316L53.9955 55.8822Z" fill="url(#paint3_radial_11_1361)"/>
</g>
<defs>
<radialGradient id="paint0_radial_11_1361" cx="0" cy="0" r="1" gradientUnits="userSpaceOnUse" gradientTransform="translate(67.3997 6.18539) scale(83.6726 83.6728)">
<stop offset="0.01" stop-color="#60EC8E"/>
<stop offset="0.99" stop-color="#5495FC"/>
</radialGradient>
<radialGradient id="paint1_radial_11_1361" cx="0" cy="0" r="1" gradientUnits="userSpaceOnUse" gradientTransform="translate(54.1707 37.0215) scale(11.7941 6.56537)">
<stop offset="0.01" stop-color="#60EC8E"/>
<stop offset="0.99" stop-color="#5495FC"/>
</radialGradient>
<radialGradient id="paint2_radial_11_1361" cx="0" cy="0" r="1" gradientUnits="userSpaceOnUse" gradientTransform="translate(63.2223 18.5971) scale(60.9754 63.5012)">
<stop offset="0.01" stop-color="#60EC8E"/>
<stop offset="0.99" stop-color="#5495FC"/>
</radialGradient>
<radialGradient id="paint3_radial_11_1361" cx="0" cy="0" r="1" gradientUnits="userSpaceOnUse" gradientTransform="translate(52.9312 51.8606) scale(5.05926 9.86117)">
<stop offset="0.01" stop-color="#60EC8E"/>
<stop offset="0.99" stop-color="#5495FC"/>
</radialGradient>
<clipPath id="clip0_11_1361">
<rect width="104" height="104" fill="white"/>
</clipPath>
</defs>
</svg>
