<svg width="24" height="24" viewBox="0 0 24 24" fill="none" xmlns="http://www.w3.org/2000/svg">
<g clip-path="url(#clip0_399_1015)">
<path d="M12 24C5.3736 24 0 18.6264 0 12C0 5.3736 5.3736 0 12 0C18.6264 0 24 5.3736 24 12C24 18.6264 18.6264 24 12 24Z" fill="url(#paint0_linear_399_1015)"/>
<path d="M12 5.28478C14.1864 5.28478 14.4456 5.29198 15.3096 5.33278C16.1088 5.36878 16.5432 5.50318 16.8312 5.61598C17.2128 5.76478 17.4864 5.94238 17.772 6.22798C18.0576 6.51358 18.2352 6.78718 18.384 7.16878C18.4968 7.45678 18.6288 7.89118 18.6672 8.69038C18.7056 9.55438 18.7152 9.81358 18.7152 12C18.7152 14.1864 18.708 14.4456 18.6672 15.3096C18.6312 16.1088 18.4968 16.5432 18.384 16.8312C18.2352 17.2128 18.0576 17.4864 17.772 17.772C17.4864 18.0576 17.2128 18.2352 16.8312 18.384C16.5432 18.4968 16.1088 18.6288 15.3096 18.6672C14.4456 18.7056 14.1864 18.7152 12 18.7152C9.8136 18.7152 9.5544 18.708 8.6904 18.6672C7.8912 18.6312 7.4568 18.4968 7.1688 18.384C6.7872 18.2352 6.5136 18.0576 6.228 17.772C5.9424 17.4864 5.7648 17.2128 5.616 16.8312C5.5032 16.5432 5.3712 16.1088 5.3328 15.3096C5.2944 14.4456 5.2848 14.1864 5.2848 12C5.2848 9.81358 5.292 9.55438 5.3328 8.69038C5.3688 7.89118 5.5032 7.45678 5.616 7.16878C5.7648 6.78718 5.9424 6.51358 6.228 6.22798C6.5136 5.94238 6.7872 5.76478 7.1688 5.61598C7.4568 5.50318 7.8912 5.37118 8.6904 5.33278C9.5544 5.29198 9.8136 5.28478 12 5.28478ZM12 3.80878C9.7752 3.80878 9.4968 3.81838 8.6232 3.85918C7.752 3.89998 7.1568 4.03678 6.6336 4.24078C6.096 4.44718 5.6376 4.72798 5.184 5.18398C4.728 5.63998 4.4496 6.09598 4.2384 6.63598C4.0368 7.15678 3.8976 7.75198 3.8568 8.62558C3.816 9.49918 3.8064 9.77758 3.8064 12.0024C3.8064 14.2272 3.816 14.5056 3.8568 15.3792C3.8976 16.2504 4.0344 16.8456 4.2384 17.3688C4.4472 17.904 4.728 18.3624 5.184 18.816C5.64 19.272 6.096 19.5504 6.636 19.7616C7.1568 19.9632 7.752 20.1024 8.6256 20.1432C9.4992 20.184 9.7776 20.1936 12.0024 20.1936C14.2272 20.1936 14.5056 20.184 15.3792 20.1432C16.2504 20.1024 16.8456 19.9656 17.3688 19.7616C17.904 19.5528 18.3624 19.272 18.816 18.816C19.272 18.36 19.5504 17.904 19.7616 17.364C19.9632 16.8432 20.1024 16.248 20.1432 15.3744C20.184 14.5008 20.1936 14.2224 20.1936 11.9976C20.1936 9.77278 20.184 9.49438 20.1432 8.62078C20.1024 7.74958 19.9656 7.15438 19.7616 6.63118C19.5528 6.09598 19.272 5.63758 18.816 5.18398C18.36 4.72798 17.904 4.44958 17.364 4.23838C16.8432 4.03678 16.248 3.89758 15.3744 3.85678C14.5032 3.81838 14.2248 3.80878 12 3.80878Z" fill="white"/>
<path d="M11.9999 7.79279C9.67672 7.79279 7.79272 9.67679 7.79272 12C7.79272 14.3232 9.67672 16.2072 11.9999 16.2072C14.3231 16.2072 16.2071 14.3232 16.2071 12C16.2071 9.67679 14.3231 7.79279 11.9999 7.79279ZM11.9999 14.7312C10.4927 14.7312 9.26872 13.5096 9.26872 12C9.26872 10.4904 10.4927 9.26879 11.9999 9.26879C13.5071 9.26879 14.7311 10.4904 14.7311 12C14.7311 13.5096 13.5071 14.7312 11.9999 14.7312Z" fill="white"/>
<path d="M16.3729 8.61119C16.9164 8.61119 17.3569 8.17064 17.3569 7.62719C17.3569 7.08374 16.9164 6.64319 16.3729 6.64319C15.8295 6.64319 15.3889 7.08374 15.3889 7.62719C15.3889 8.17064 15.8295 8.61119 16.3729 8.61119Z" fill="white"/>
</g>
<defs>
<linearGradient id="paint0_linear_399_1015" x1="3.51473" y1="20.4853" x2="20.4853" y2="3.51473" gradientUnits="userSpaceOnUse">
<stop stop-color="#FFD521"/>
<stop offset="0.055" stop-color="#FFD020"/>
<stop offset="0.124" stop-color="#FEC01E"/>
<stop offset="0.2" stop-color="#FCA71B"/>
<stop offset="0.282" stop-color="#FA8316"/>
<stop offset="0.368" stop-color="#F85510"/>
<stop offset="0.456" stop-color="#F51E09"/>
<stop offset="0.5" stop-color="#F30005"/>
<stop offset="0.503" stop-color="#F20007"/>
<stop offset="0.597" stop-color="#E1003B"/>
<stop offset="0.688" stop-color="#D30067"/>
<stop offset="0.776" stop-color="#C70088"/>
<stop offset="0.859" stop-color="#BF00A0"/>
<stop offset="0.936" stop-color="#BB00AF"/>
<stop offset="1" stop-color="#B900B4"/>
</linearGradient>
<clipPath id="clip0_399_1015">
<rect width="24" height="24" fill="white"/>
</clipPath>
</defs>
</svg>
