<svg width="12" height="12" viewBox="0 0 12 12" fill="none" xmlns="http://www.w3.org/2000/svg">
<path d="M6.45898 8.29512L4.62292 10.1312L4.62288 10.1313L4.62284 10.1313C3.86357 10.8906 2.62808 10.8907 1.86873 10.1313C1.50087 9.76344 1.29833 9.27436 1.29833 8.75421C1.29833 8.2341 1.50087 7.7451 1.8686 7.37724L1.86873 7.37711L3.70479 5.54101C3.95827 5.28749 3.95827 4.87644 3.70475 4.62296C3.45127 4.36948 3.04022 4.36948 2.7867 4.62296L0.950638 6.45906L0.950249 6.45949C0.33748 7.07248 0 7.88744 0 8.75421C0 9.62119 0.337609 10.4363 0.950681 11.0494C1.58349 11.6821 2.41464 11.9985 3.24583 11.9985C4.07702 11.9985 4.90821 11.6821 5.54093 11.0494L5.54098 11.0493L7.37703 9.21317C7.63051 8.95969 7.63051 8.54864 7.37699 8.29512C7.12355 8.04164 6.71255 8.04164 6.45898 8.29512ZM12 3.24586C12 2.37888 11.6623 1.56379 11.0493 0.950716C9.78371 -0.314811 7.72451 -0.314768 6.45903 0.950716L6.45885 0.950932L4.62284 2.7869C4.36932 3.04038 4.36932 3.45148 4.62284 3.70495C4.68305 3.76533 4.7546 3.81322 4.83338 3.84585C4.91216 3.87848 4.99661 3.89523 5.08189 3.89511C5.24799 3.89511 5.41417 3.83171 5.54089 3.70495L7.3769 1.86898L7.37712 1.86877C8.13638 1.1095 9.37187 1.10946 10.1312 1.86877C10.499 2.23663 10.7017 2.72571 10.7017 3.24586C10.7017 3.76597 10.4991 4.25497 10.1314 4.62283L10.1312 4.62296L8.29517 6.45906C8.04169 6.71254 8.04169 7.12359 8.29521 7.37711C8.35542 7.43748 8.42697 7.48536 8.50574 7.51799C8.58451 7.55063 8.66895 7.56737 8.75422 7.56727C8.92036 7.56727 9.0865 7.50387 9.21326 7.37711L11.0493 5.54101L11.0497 5.54058C11.6625 4.92759 12 4.11263 12 3.24586Z" fill="white"/>
<path d="M3.70479 8.29513C3.765 8.3555 3.83654 8.40338 3.91532 8.43601C3.99409 8.46865 4.07853 8.48539 4.16379 8.48529C4.32994 8.48529 4.49608 8.42189 4.62284 8.29513L8.29504 4.62293C8.54856 4.36945 8.54856 3.9584 8.29504 3.70488C8.04156 3.4514 7.63051 3.4514 7.37699 3.70488L3.70479 7.37704C3.45127 7.6306 3.45127 8.04165 3.70479 8.29513Z" fill="white"/>
</svg>
