<svg width="24" height="24" viewBox="0 0 24 24" fill="none" xmlns="http://www.w3.org/2000/svg">
<path fill-rule="evenodd" clip-rule="evenodd" d="M12 0C5.24002 0 0 4.95169 0 11.64C0 15.1384 1.43377 18.1615 3.76866 20.2495C3.96469 20.425 4.083 20.6707 4.09102 20.9338L4.15636 23.0683C4.17722 23.7492 4.88053 24.1922 5.50359 23.9172L7.88541 22.8657C8.08725 22.7767 8.31364 22.7601 8.52633 22.8187C9.62086 23.1196 10.7857 23.28 12 23.28C18.7599 23.28 24 18.3283 24 11.64C24 4.95164 18.7599 0 12 0Z" fill="white"/>
<path fill-rule="evenodd" clip-rule="evenodd" d="M4.79406 15.0441L8.31906 9.45158C8.87978 8.5619 10.0805 8.34036 10.9218 8.97135L13.7254 11.0741C13.8506 11.168 14.003 11.2185 14.1595 11.2181C14.316 11.2176 14.4681 11.1662 14.5927 11.0716L18.3791 8.19796C18.8845 7.81443 19.5442 8.41925 19.206 8.95597L15.681 14.5485C15.1203 15.4381 13.9195 15.6597 13.0783 15.0287L10.2746 12.9259C10.1494 12.832 9.99702 12.7815 9.84053 12.7819C9.68404 12.7824 9.53196 12.8338 9.40731 12.9284L5.62089 15.8021C5.11549 16.1856 4.45577 15.5808 4.79406 15.0441Z" fill="url(#paint0_radial_399_995)"/>
<defs>
<radialGradient id="paint0_radial_399_995" cx="0" cy="0" r="1" gradientUnits="userSpaceOnUse" gradientTransform="translate(7.51252 15.8277) scale(15.8973 8.54461)">
<stop stop-color="#0099FF"/>
<stop offset="0.61" stop-color="#A033FF"/>
<stop offset="0.935" stop-color="#FF5280"/>
<stop offset="1" stop-color="#FF7061"/>
</radialGradient>
</defs>
</svg>
