<svg width="40" height="40" viewBox="0 0 40 40" fill="none" xmlns="http://www.w3.org/2000/svg">
<g clip-path="url(#clip0_533_2269)">
<path d="M29.6439 25.4772C29.4644 25.4768 29.289 25.4232 29.1399 25.3233C28.9908 25.2234 28.8746 25.0816 28.806 24.9157C28.7373 24.7499 28.7193 24.5674 28.7542 24.3913C28.7891 24.2153 28.8754 24.0535 29.0021 23.9263C30.184 22.7446 31.1216 21.3415 31.7612 19.7974C32.4009 18.2533 32.7301 16.5982 32.7301 14.9269C32.7301 13.2555 32.4009 11.6005 31.7612 10.0563C31.1216 8.5122 30.184 7.10918 29.0021 5.9274C28.9153 5.84354 28.8461 5.74324 28.7984 5.63233C28.7508 5.52142 28.7257 5.40214 28.7246 5.28144C28.7236 5.16074 28.7466 5.04103 28.7923 4.92932C28.838 4.8176 28.9055 4.7161 28.9909 4.63075C29.0762 4.5454 29.1777 4.4779 29.2894 4.43219C29.4011 4.38649 29.5208 4.36349 29.6415 4.36454C29.7622 4.36559 29.8815 4.39066 29.9924 4.4383C30.1033 4.48595 30.2036 4.5552 30.2875 4.64202C33.0148 7.36961 34.5469 11.0688 34.5469 14.926C34.5469 18.7831 33.0148 22.4823 30.2875 25.2099C30.2033 25.2949 30.103 25.3623 29.9925 25.4081C29.8821 25.454 29.7635 25.4775 29.6439 25.4772Z" fill="url(#paint0_linear_533_2269)"/>
<path d="M10.3571 25.4775C10.2377 25.4778 10.1194 25.4545 10.0091 25.4087C9.89878 25.363 9.79863 25.2959 9.71445 25.2112C6.9872 22.4836 5.45508 18.7844 5.45508 14.9272C5.45508 11.0701 6.9872 7.37087 9.71445 4.64328C9.79744 4.55311 9.8978 4.48065 10.0095 4.43026C10.1212 4.37987 10.242 4.35259 10.3645 4.35005C10.487 4.34751 10.6088 4.36977 10.7225 4.41549C10.8362 4.46121 10.9394 4.52945 11.0261 4.6161C11.1127 4.70276 11.181 4.80604 11.2267 4.91973C11.2724 5.03343 11.2947 5.1552 11.2921 5.27772C11.2896 5.40024 11.2623 5.52098 11.2119 5.63269C11.1615 5.74439 11.0891 5.84476 10.9989 5.92775C9.81701 7.10953 8.87947 8.51255 8.23982 10.0567C7.60017 11.6008 7.27095 13.2558 7.27095 14.9272C7.27095 16.5986 7.60017 18.2536 8.23982 19.7977C8.87947 21.3419 9.81701 22.7449 10.9989 23.9267C11.126 24.0538 11.2126 24.2158 11.2476 24.3921C11.2827 24.5684 11.2647 24.7511 11.1959 24.9172C11.1271 25.0833 11.0106 25.2253 10.8612 25.3251C10.7117 25.425 10.536 25.4784 10.3562 25.4784L10.3571 25.4775Z" fill="url(#paint1_linear_533_2269)"/>
<g filter="url(#filter0_bi_533_2269)">
<path d="M33.5006 29.3351C33.3209 29.3351 33.1452 29.2817 32.9957 29.1818C32.8463 29.0819 32.7298 28.94 32.661 28.7739C32.5922 28.6078 32.5742 28.4251 32.6093 28.2488C32.6443 28.0725 32.7309 27.9105 32.858 27.7834C34.5464 26.0951 35.8858 24.0908 36.7996 21.8848C37.7134 19.6789 38.1838 17.3146 38.1838 14.9269C38.1838 12.5391 37.7134 10.1748 36.7996 7.96887C35.8858 5.76294 34.5464 3.75861 32.858 2.07034C32.6924 1.89889 32.6007 1.66927 32.6028 1.43092C32.6049 1.19258 32.7005 0.964579 32.869 0.796036C33.0376 0.627493 33.2656 0.531891 33.5039 0.52982C33.7423 0.527748 33.9719 0.619374 34.1433 0.784963C36.0006 2.64205 37.4738 4.84677 38.479 7.27325C39.4841 9.69973 40.0014 12.3004 40.0014 14.9269C40.0014 17.5533 39.4841 20.154 38.479 22.5805C37.4738 25.0069 36.0006 27.2117 34.1433 29.0687C33.9729 29.2392 33.7417 29.335 33.5006 29.3351Z" fill="url(#paint2_linear_533_2269)" fill-opacity="0.2"/>
<path d="M33.996 28.9215L33.996 28.9214C35.8339 27.0837 37.2918 24.9019 38.2865 22.5007C39.2812 20.0995 39.7931 17.5259 39.7931 14.9269C39.7931 12.3278 39.2812 9.75418 38.2865 7.35298C37.2921 4.95237 35.8346 2.7711 33.9974 0.933641C33.8654 0.806742 33.6889 0.736553 33.5057 0.738145C33.322 0.739741 33.1463 0.813434 33.0163 0.94335C32.8864 1.07327 32.8127 1.24901 32.8111 1.43273C32.8095 1.61589 32.8797 1.79237 33.0066 1.92439C34.7138 3.63172 36.0681 5.65853 36.9921 7.88914C37.9164 10.1204 38.3921 12.5118 38.3921 14.9269C38.3921 17.3419 37.9164 19.7334 36.9921 21.9646C36.0678 24.1958 34.7131 26.2231 33.0053 27.9307M33.996 28.9215L33.5006 29.1268C33.3621 29.1267 33.2267 29.0856 33.1115 29.0086C32.9963 28.9316 32.9065 28.8222 32.8535 28.6942C32.8004 28.5662 32.7866 28.4253 32.8136 28.2894C32.8406 28.1535 32.9073 28.0287 33.0053 27.9307M33.996 28.9215C33.8646 29.0528 33.6865 29.1267 33.5007 29.1268L33.996 28.9215ZM33.0053 27.9307L32.858 27.7834L33.0053 27.9307C33.0053 27.9307 33.0053 27.9307 33.0053 27.9307Z" stroke="url(#paint3_linear_533_2269)" stroke-opacity="0.1" stroke-width="0.416667"/>
</g>
<g filter="url(#filter1_bi_533_2269)">
<path d="M6.5008 29.3351C6.25973 29.335 6.02855 29.2392 5.85811 29.0687C4.00087 27.2117 2.52762 25.0069 1.52248 22.5805C0.51734 20.154 0 17.5533 0 14.9269C0 12.3004 0.51734 9.69973 1.52248 7.27325C2.52762 4.84677 4.00087 2.64205 5.85811 0.784963C6.02956 0.619374 6.25918 0.527748 6.49753 0.52982C6.73587 0.531891 6.96387 0.627493 7.13241 0.796036C7.30096 0.964579 7.39656 1.19258 7.39863 1.43092C7.4007 1.66927 7.30908 1.89889 7.14349 2.07034C5.45501 3.75861 4.11563 5.76294 3.20183 7.96887C2.28802 10.1748 1.81769 12.5391 1.81769 14.9269C1.81769 17.3146 2.28802 19.6789 3.20183 21.8848C4.11563 24.0908 5.45501 26.0951 7.14349 27.7834C7.27058 27.9105 7.35713 28.0725 7.39219 28.2488C7.42725 28.4251 7.40924 28.6078 7.34046 28.7739C7.27167 28.94 7.15519 29.0819 7.00573 29.1818C6.85628 29.2817 6.68056 29.3351 6.5008 29.3351Z" fill="url(#paint4_linear_533_2269)" fill-opacity="0.2"/>
<path d="M6.00542 28.9214L6.00545 28.9215C6.1368 29.0528 6.31496 29.1267 6.50075 29.1268L6.00542 28.9214ZM6.00542 28.9214C4.16753 27.0837 2.70962 24.9019 1.71495 22.5007M6.00542 28.9214L1.71495 22.5007M1.71495 22.5007C0.720284 20.0995 0.208333 17.5259 0.208333 14.9269M1.71495 22.5007L0.208333 14.9269M0.208333 14.9269C0.208333 12.3278 0.720284 9.75418 1.71495 7.35298M0.208333 14.9269L1.71495 7.35298M1.71495 7.35298C2.70938 4.95237 4.16681 2.77109 6.00407 0.933634M1.71495 7.35298L6.00407 0.933634M6.00407 0.933634C6.13609 0.80674 6.31256 0.736553 6.49572 0.738145C6.67944 0.739741 6.85518 0.813434 6.9851 0.94335C7.11502 1.07327 7.18871 1.24901 7.19031 1.43273C7.1919 1.61589 7.12171 1.79237 6.99481 1.92439C5.28764 3.63172 3.93338 5.65852 3.00935 7.88914C2.08507 10.1204 1.60935 12.5118 1.60935 14.9269C1.60935 17.3419 2.08507 19.7334 3.00935 21.9646C3.93363 24.1958 5.28836 26.2231 6.99618 27.9307M6.00407 0.933634L6.50084 29.1268C6.63938 29.1267 6.77479 29.0856 6.88997 29.0086C7.00517 28.9316 7.09496 28.8222 7.14798 28.6942C7.201 28.5662 7.21488 28.4253 7.18785 28.2894C7.16083 28.1535 7.09413 28.0287 6.99618 27.9307M6.99618 27.9307C6.99617 27.9307 6.99616 27.9307 6.99615 27.9307L7.14349 27.7834L6.99618 27.9307Z" stroke="url(#paint5_linear_533_2269)" stroke-opacity="0.1" stroke-width="0.416667"/>
</g>
<g filter="url(#filter2_bi_533_2269)">
<path d="M29.64 25.4774C29.4605 25.477 29.2851 25.4235 29.136 25.3236C28.9869 25.2236 28.8707 25.0818 28.8021 24.916C28.7334 24.7501 28.7154 24.5676 28.7503 24.3916C28.7852 24.2155 28.8715 24.0537 28.9982 23.9266C30.1801 22.7448 31.1177 21.3418 31.7573 19.7976C32.397 18.2535 32.7262 16.5985 32.7262 14.9271C32.7262 13.2557 32.397 11.6007 31.7573 10.0566C31.1177 8.51245 30.1801 7.10943 28.9982 5.92764C28.9114 5.84379 28.8421 5.74348 28.7945 5.63257C28.7469 5.52167 28.7218 5.40238 28.7207 5.28168C28.7197 5.16098 28.7427 5.04128 28.7884 4.92956C28.8341 4.81784 28.9016 4.71635 28.987 4.631C29.0723 4.54564 29.1738 4.47815 29.2855 4.43244C29.3972 4.38673 29.5169 4.36373 29.6376 4.36478C29.7583 4.36583 29.8776 4.39091 29.9885 4.43855C30.0994 4.48619 30.1997 4.55544 30.2836 4.64226C33.0108 7.36985 34.543 11.0691 34.543 14.9262C34.543 18.7834 33.0108 22.4826 30.2836 25.2101C30.1994 25.2951 30.0991 25.3625 29.9886 25.4084C29.8781 25.4543 29.7596 25.4777 29.64 25.4774Z" fill="url(#paint6_linear_533_2269)" fill-opacity="0.2"/>
<path d="M29.1455 24.0739C30.3468 22.8728 31.2997 21.4468 31.9498 19.8774C32.5999 18.308 32.9345 16.6259 32.9345 14.9271C32.9345 13.2284 32.5999 11.5463 31.9498 9.97685C31.2997 8.40744 30.3468 6.98145 29.1455 5.78032L29.1456 5.7803L29.143 5.77779C29.076 5.71315 29.0226 5.63583 28.9859 5.55035C28.9492 5.46486 28.9299 5.37291 28.9291 5.27987C28.9283 5.18683 28.946 5.09456 28.9812 5.00845C29.0164 4.92234 29.0685 4.8441 29.1343 4.77831C29.2001 4.71252 29.2783 4.66049 29.3644 4.62526C29.4505 4.59003 29.5428 4.5723 29.6358 4.57311C29.7289 4.57391 29.8208 4.59324 29.9063 4.62997C29.9918 4.66669 30.0691 4.72007 30.1337 4.787L30.1337 4.78702L30.1363 4.78957C32.8245 7.47809 34.3346 11.1243 34.3346 14.9262C34.3346 18.7281 32.8245 22.3743 30.1363 25.0628L30.1356 25.0635C30.0708 25.1289 29.9937 25.1807 29.9087 25.216C29.8237 25.2513 29.7326 25.2693 29.6406 25.2691H29.6405C29.5021 25.2688 29.3669 25.2275 29.252 25.1505C29.137 25.0735 29.0475 24.9641 28.9946 24.8363C28.9416 24.7085 28.9278 24.5678 28.9547 24.4321C28.9816 24.2965 29.048 24.1719 29.1455 24.0739ZM29.1455 24.0739L28.9982 23.9266L29.1458 24.0737C29.1457 24.0737 29.1456 24.0738 29.1455 24.0739Z" stroke="url(#paint7_linear_533_2269)" stroke-opacity="0.1" stroke-width="0.416667"/>
</g>
<g filter="url(#filter3_bi_533_2269)">
<path d="M10.3571 25.4775C10.2377 25.4778 10.1194 25.4545 10.0091 25.4087C9.89878 25.363 9.79863 25.2959 9.71445 25.2112C6.9872 22.4836 5.45508 18.7844 5.45508 14.9272C5.45508 11.0701 6.9872 7.37087 9.71445 4.64328C9.79744 4.55311 9.8978 4.48065 10.0095 4.43026C10.1212 4.37987 10.242 4.35259 10.3645 4.35005C10.487 4.34751 10.6088 4.36977 10.7225 4.41549C10.8362 4.46121 10.9394 4.52945 11.0261 4.6161C11.1127 4.70276 11.181 4.80604 11.2267 4.91973C11.2724 5.03343 11.2947 5.1552 11.2921 5.27772C11.2896 5.40024 11.2623 5.52098 11.2119 5.63269C11.1615 5.74439 11.0891 5.84476 10.9989 5.92775C9.81701 7.10953 8.87947 8.51255 8.23982 10.0567C7.60017 11.6008 7.27095 13.2558 7.27095 14.9272C7.27095 16.5986 7.60017 18.2536 8.23982 19.7977C8.87947 21.3419 9.81701 22.7449 10.9989 23.9267C11.126 24.0538 11.2126 24.2158 11.2476 24.3921C11.2827 24.5684 11.2647 24.7511 11.1959 24.9172C11.1271 25.0833 11.0106 25.2253 10.8612 25.3251C10.7117 25.425 10.536 25.4784 10.3562 25.4784L10.3571 25.4775Z" fill="url(#paint8_linear_533_2269)" fill-opacity="0.2"/>
<path d="M10.3936 25.2691L10.3566 25.2692C10.2647 25.2694 10.1737 25.2514 10.0889 25.2163L10.0091 25.4087L10.0889 25.2163C10.004 25.1811 9.92697 25.1294 9.86221 25.0643L9.86177 25.0639C7.17359 22.3753 5.66341 18.7291 5.66341 14.9272C5.66341 11.1253 7.17359 7.4791 9.86177 4.79058L9.8619 4.79071L9.86774 4.78436C9.93171 4.71486 10.0091 4.65901 10.0952 4.62017C10.1813 4.58133 10.2744 4.56029 10.3688 4.55834C10.4632 4.55638 10.5571 4.57354 10.6447 4.60878C10.7324 4.64403 10.812 4.69662 10.8788 4.76342C10.9456 4.83021 10.9982 4.90982 11.0334 4.99746C11.0687 5.0851 11.0858 5.17896 11.0839 5.27341C11.0819 5.36785 11.0609 5.46092 11.022 5.54702C10.9832 5.63313 10.9273 5.71049 10.8578 5.77446L10.8577 5.77433L10.8516 5.78043C9.65036 6.98156 8.69747 8.40754 8.04735 9.97696C7.39723 11.5464 7.06261 13.2285 7.06261 14.9272C7.06261 16.626 7.39723 18.3081 8.04735 19.8775C8.69747 21.4469 9.65036 22.8729 10.8516 24.074M10.8516 24.074C10.8516 24.074 10.8516 24.074 10.8516 24.074L10.9989 23.9267L10.8516 24.074Z" stroke="url(#paint9_linear_533_2269)" stroke-opacity="0.1" stroke-width="0.416667"/>
</g>
<path d="M27.2739 37.6523H20.9107V18.4334C21.7676 18.2122 22.5144 17.686 23.0111 16.9535C23.5078 16.221 23.7203 15.3325 23.6088 14.4546C23.4973 13.5766 23.0694 12.7695 22.4054 12.1844C21.7413 11.5994 20.8867 11.2766 20.0016 11.2766C19.1166 11.2766 18.262 11.5994 17.5979 12.1844C16.9339 12.7695 16.506 13.5766 16.3945 14.4546C16.283 15.3325 16.4955 16.221 16.9922 16.9535C17.4889 17.686 18.2357 18.2122 19.0926 18.4334V37.6523H12.7293C12.4883 37.6523 12.257 37.7481 12.0866 37.9186C11.9161 38.089 11.8203 38.3203 11.8203 38.5613C11.8203 38.8024 11.9161 39.0337 12.0866 39.2041C12.257 39.3746 12.4883 39.4704 12.7293 39.4704H27.2739C27.515 39.4704 27.7463 39.3746 27.9167 39.2041C28.0872 39.0337 28.183 38.8024 28.183 38.5613C28.183 38.3203 28.0872 38.089 27.9167 37.9186C27.7463 37.7481 27.515 37.6523 27.2739 37.6523Z" fill="url(#paint10_linear_533_2269)"/>
<path d="M14.2172 21.6204C14.0978 21.6207 13.9795 21.5974 13.8692 21.5516C13.7589 21.5059 13.6587 21.4388 13.5746 21.3541C11.8698 19.6493 10.9121 17.3372 10.9121 14.9263C10.9121 12.5154 11.8698 10.2032 13.5746 8.49847C13.6584 8.41164 13.7587 8.34239 13.8696 8.29475C13.9805 8.24711 14.0998 8.22203 14.2205 8.22098C14.3412 8.21993 14.4609 8.24293 14.5726 8.28864C14.6844 8.33435 14.7858 8.40185 14.8712 8.4872C14.9566 8.57255 15.0241 8.67405 15.0698 8.78576C15.1155 8.89748 15.1385 9.01718 15.1374 9.13788C15.1364 9.25858 15.1113 9.37787 15.0636 9.48877C15.016 9.59968 14.9468 9.69999 14.8599 9.78384C14.1846 10.4591 13.6489 11.2609 13.2834 12.1432C12.9179 13.0255 12.7298 13.9712 12.7298 14.9263C12.7298 15.8813 12.9179 16.827 13.2834 17.7093C13.6489 18.5917 14.1846 19.3934 14.8599 20.0687C14.987 20.1958 15.0736 20.3578 15.1086 20.5341C15.1437 20.7104 15.1257 20.8931 15.0569 21.0592C14.9881 21.2253 14.8716 21.3673 14.7222 21.4672C14.5727 21.567 14.397 21.6204 14.2172 21.6204Z" fill="url(#paint11_linear_533_2269)"/>
<path d="M25.7874 21.6204C25.6076 21.6204 25.4319 21.567 25.2825 21.4672C25.133 21.3673 25.0165 21.2253 24.9477 21.0592C24.879 20.8931 24.8609 20.7104 24.896 20.5341C24.9311 20.3578 25.0176 20.1958 25.1447 20.0687C25.82 19.3934 26.3557 18.5917 26.7212 17.7093C27.0867 16.827 27.2748 15.8813 27.2748 14.9263C27.2748 13.9712 27.0867 13.0255 26.7212 12.1432C26.3557 11.2609 25.82 10.4591 25.1447 9.78384C25.0579 9.69999 24.9886 9.59968 24.941 9.48877C24.8933 9.37787 24.8683 9.25858 24.8672 9.13788C24.8662 9.01718 24.8892 8.89748 24.9349 8.78576C24.9806 8.67405 25.0481 8.57255 25.1334 8.4872C25.2188 8.40185 25.3203 8.33435 25.432 8.28864C25.5437 8.24293 25.6634 8.21993 25.7841 8.22098C25.9048 8.22203 26.0241 8.24711 26.135 8.29475C26.2459 8.34239 26.3462 8.41164 26.4301 8.49847C28.1348 10.2032 29.0925 12.5154 29.0925 14.9263C29.0925 17.3372 28.1348 19.6493 26.4301 21.3541C26.3459 21.4388 26.2457 21.5059 26.1354 21.5516C26.0251 21.5974 25.9068 21.6207 25.7874 21.6204Z" fill="url(#paint12_linear_533_2269)"/>
</g>
<defs>
<filter id="filter0_bi_533_2269" x="29.5918" y="-2.47021" width="13.4102" height="34.8054" filterUnits="userSpaceOnUse" color-interpolation-filters="sRGB">
<feFlood flood-opacity="0" result="BackgroundImageFix"/>
<feGaussianBlur in="BackgroundImageFix" stdDeviation="1.5"/>
<feComposite in2="SourceAlpha" operator="in" result="effect1_backgroundBlur_533_2269"/>
<feBlend mode="normal" in="SourceGraphic" in2="effect1_backgroundBlur_533_2269" result="shape"/>
<feColorMatrix in="SourceAlpha" type="matrix" values="0 0 0 0 0 0 0 0 0 0 0 0 0 0 0 0 0 0 127 0" result="hardAlpha"/>
<feOffset dy="0.5"/>
<feGaussianBlur stdDeviation="1"/>
<feComposite in2="hardAlpha" operator="arithmetic" k2="-1" k3="1"/>
<feColorMatrix type="matrix" values="0 0 0 0 1 0 0 0 0 1 0 0 0 0 1 0 0 0 0.4 0"/>
<feBlend mode="normal" in2="shape" result="effect2_innerShadow_533_2269"/>
</filter>
<filter id="filter1_bi_533_2269" x="-3" y="-2.47021" width="13.4102" height="34.8054" filterUnits="userSpaceOnUse" color-interpolation-filters="sRGB">
<feFlood flood-opacity="0" result="BackgroundImageFix"/>
<feGaussianBlur in="BackgroundImageFix" stdDeviation="1.5"/>
<feComposite in2="SourceAlpha" operator="in" result="effect1_backgroundBlur_533_2269"/>
<feBlend mode="normal" in="SourceGraphic" in2="effect1_backgroundBlur_533_2269" result="shape"/>
<feColorMatrix in="SourceAlpha" type="matrix" values="0 0 0 0 0 0 0 0 0 0 0 0 0 0 0 0 0 0 127 0" result="hardAlpha"/>
<feOffset dy="0.5"/>
<feGaussianBlur stdDeviation="1"/>
<feComposite in2="hardAlpha" operator="arithmetic" k2="-1" k3="1"/>
<feColorMatrix type="matrix" values="0 0 0 0 1 0 0 0 0 1 0 0 0 0 1 0 0 0 0.4 0"/>
<feBlend mode="normal" in2="shape" result="effect2_innerShadow_533_2269"/>
</filter>
<filter id="filter2_bi_533_2269" x="25.7207" y="1.36475" width="11.8223" height="27.1125" filterUnits="userSpaceOnUse" color-interpolation-filters="sRGB">
<feFlood flood-opacity="0" result="BackgroundImageFix"/>
<feGaussianBlur in="BackgroundImageFix" stdDeviation="1.5"/>
<feComposite in2="SourceAlpha" operator="in" result="effect1_backgroundBlur_533_2269"/>
<feBlend mode="normal" in="SourceGraphic" in2="effect1_backgroundBlur_533_2269" result="shape"/>
<feColorMatrix in="SourceAlpha" type="matrix" values="0 0 0 0 0 0 0 0 0 0 0 0 0 0 0 0 0 0 127 0" result="hardAlpha"/>
<feOffset dy="0.5"/>
<feGaussianBlur stdDeviation="1"/>
<feComposite in2="hardAlpha" operator="arithmetic" k2="-1" k3="1"/>
<feColorMatrix type="matrix" values="0 0 0 0 1 0 0 0 0 1 0 0 0 0 1 0 0 0 0.4 0"/>
<feBlend mode="normal" in2="shape" result="effect2_innerShadow_533_2269"/>
</filter>
<filter id="filter3_bi_533_2269" x="2.45508" y="1.34985" width="11.8379" height="27.1287" filterUnits="userSpaceOnUse" color-interpolation-filters="sRGB">
<feFlood flood-opacity="0" result="BackgroundImageFix"/>
<feGaussianBlur in="BackgroundImageFix" stdDeviation="1.5"/>
<feComposite in2="SourceAlpha" operator="in" result="effect1_backgroundBlur_533_2269"/>
<feBlend mode="normal" in="SourceGraphic" in2="effect1_backgroundBlur_533_2269" result="shape"/>
<feColorMatrix in="SourceAlpha" type="matrix" values="0 0 0 0 0 0 0 0 0 0 0 0 0 0 0 0 0 0 127 0" result="hardAlpha"/>
<feOffset dy="0.5"/>
<feGaussianBlur stdDeviation="1"/>
<feComposite in2="hardAlpha" operator="arithmetic" k2="-1" k3="1"/>
<feColorMatrix type="matrix" values="0 0 0 0 1 0 0 0 0 1 0 0 0 0 1 0 0 0 0.4 0"/>
<feBlend mode="normal" in2="shape" result="effect2_innerShadow_533_2269"/>
</filter>
<linearGradient id="paint0_linear_533_2269" x1="34.5469" y1="14.9208" x2="28.7246" y2="14.9208" gradientUnits="userSpaceOnUse">
<stop stop-color="#5495FC"/>
<stop offset="1" stop-color="#31D366"/>
</linearGradient>
<linearGradient id="paint1_linear_533_2269" x1="11.2923" y1="14.9141" x2="5.45508" y2="14.9141" gradientUnits="userSpaceOnUse">
<stop stop-color="#5495FC"/>
<stop offset="1" stop-color="#31D366"/>
</linearGradient>
<linearGradient id="paint2_linear_533_2269" x1="32.5918" y1="0.529785" x2="41.8434" y2="1.13406" gradientUnits="userSpaceOnUse">
<stop stop-color="#83E9FF"/>
<stop offset="0.453125" stop-color="#85A0FF"/>
</linearGradient>
<linearGradient id="paint3_linear_533_2269" x1="32.8233" y1="1.83912" x2="40.0014" y2="1.83912" gradientUnits="userSpaceOnUse">
<stop stop-color="#3CDEB6"/>
<stop offset="0.65625" stop-color="#364AFF"/>
</linearGradient>
<linearGradient id="paint4_linear_533_2269" x1="0" y1="0.529785" x2="9.25162" y2="1.13406" gradientUnits="userSpaceOnUse">
<stop stop-color="#83E9FF"/>
<stop offset="0.453125" stop-color="#85A0FF"/>
</linearGradient>
<linearGradient id="paint5_linear_533_2269" x1="0.231551" y1="1.83912" x2="7.40964" y2="1.83912" gradientUnits="userSpaceOnUse">
<stop stop-color="#3CDEB6"/>
<stop offset="0.65625" stop-color="#364AFF"/>
</linearGradient>
<linearGradient id="paint6_linear_533_2269" x1="28.7207" y1="4.36475" x2="35.9857" y2="4.87347" gradientUnits="userSpaceOnUse">
<stop stop-color="#83E9FF"/>
<stop offset="0.453125" stop-color="#85A0FF"/>
</linearGradient>
<linearGradient id="paint7_linear_533_2269" x1="28.9026" y1="5.32441" x2="34.543" y2="5.32441" gradientUnits="userSpaceOnUse">
<stop stop-color="#3CDEB6"/>
<stop offset="0.65625" stop-color="#364AFF"/>
</linearGradient>
<linearGradient id="paint8_linear_533_2269" x1="5.45508" y1="4.34985" x2="12.7387" y2="4.86081" gradientUnits="userSpaceOnUse">
<stop stop-color="#83E9FF"/>
<stop offset="0.453125" stop-color="#85A0FF"/>
</linearGradient>
<linearGradient id="paint9_linear_533_2269" x1="5.63749" y1="5.31024" x2="11.2923" y2="5.31024" gradientUnits="userSpaceOnUse">
<stop stop-color="#3CDEB6"/>
<stop offset="0.65625" stop-color="#364AFF"/>
</linearGradient>
<linearGradient id="paint10_linear_533_2269" x1="28.183" y1="25.3735" x2="11.8203" y2="25.3735" gradientUnits="userSpaceOnUse">
<stop stop-color="#5495FC"/>
<stop offset="1" stop-color="#31D366"/>
</linearGradient>
<linearGradient id="paint11_linear_533_2269" x1="15.1375" y1="14.9207" x2="10.9121" y2="14.9207" gradientUnits="userSpaceOnUse">
<stop stop-color="#5495FC"/>
<stop offset="1" stop-color="#31D366"/>
</linearGradient>
<linearGradient id="paint12_linear_533_2269" x1="29.0925" y1="14.9207" x2="24.8672" y2="14.9207" gradientUnits="userSpaceOnUse">
<stop stop-color="#5495FC"/>
<stop offset="1" stop-color="#31D366"/>
</linearGradient>
<clipPath id="clip0_533_2269">
<rect width="40" height="40" fill="white"/>
</clipPath>
</defs>
</svg>
