<svg width="104" height="104" viewBox="0 0 104 104" fill="none" xmlns="http://www.w3.org/2000/svg">
<path fill-rule="evenodd" clip-rule="evenodd" d="M9.75 41.2424H62.413V38.4768C62.413 35.6103 60.0795 33.2735 57.2098 33.2735H14.9532C12.0835 33.2735 9.75 35.607 9.75 38.4768V41.2424ZM40.1115 62.0359H52.8223C53.6842 62.0359 54.5109 61.6935 55.1203 61.084C55.7298 60.4745 56.0723 59.6479 56.0723 58.7859C56.0723 57.924 55.7298 57.0973 55.1203 56.4878C54.5109 55.8783 53.6842 55.5359 52.8223 55.5359H40.1115C39.2495 55.5359 38.4229 55.8783 37.8134 56.4878C37.2039 57.0973 36.8615 57.924 36.8615 58.7859C36.8615 59.6479 37.2039 60.4745 37.8134 61.084C38.4229 61.6935 39.2495 62.0359 40.1115 62.0359ZM49.7739 6.98787C49.4932 6.66638 49.1519 6.40338 48.7695 6.21391H48.7728C48.3906 6.02387 47.9748 5.91104 47.549 5.88186C47.1232 5.85269 46.6958 5.90774 46.2914 6.04388C45.8869 6.18001 45.5132 6.39456 45.1917 6.67525C44.8702 6.95593 44.6072 7.29724 44.4177 7.67966L40.7095 15.1547C40.5679 15.4395 40.4838 15.7495 40.4621 16.0669C40.4403 16.3842 40.4813 16.7028 40.5827 17.0043C40.6841 17.3058 40.844 17.5844 41.0531 17.8241C41.2622 18.0639 41.5165 18.26 41.8015 18.4014L49.2733 22.1097C50.0451 22.4928 50.9376 22.5536 51.7543 22.2787C52.571 22.0039 53.2451 21.4158 53.6283 20.6439C54.0114 19.872 54.0722 18.9796 53.7973 18.1628C53.6044 17.5897 53.2573 17.0868 52.8006 16.7054C54.6766 16.4047 56.5823 16.2531 58.5032 16.2531C78.2145 16.2531 94.2532 32.2919 94.2532 52.0031C94.2532 71.7144 78.2145 87.7531 58.5032 87.7531C49.1135 87.7752 40.0963 84.0821 33.4197 77.4799C32.7837 76.8533 32.1719 76.204 31.5853 75.5333H57.2098C60.3126 75.5298 63.2874 74.2957 65.4814 72.1017C67.6754 69.9076 68.9096 66.9328 68.913 63.83V38.4735C68.9096 35.3707 67.6754 32.3959 65.4814 30.2019C63.2874 28.0078 60.3126 26.7737 57.2098 26.7703H14.9532C11.8504 26.7737 8.87564 28.0078 6.6816 30.2019C4.48756 32.3959 3.25344 35.3707 3.25 38.4735V63.83C3.25344 66.9328 4.48756 69.9076 6.6816 72.1017C8.87564 74.2957 11.8504 75.5298 14.9532 75.5333H23.4054C24.9953 77.9016 26.8223 80.1058 28.86 82.1111C36.7501 89.9116 47.4049 94.2752 58.5 94.2499L58.5032 94.2564C81.7992 94.2564 100.753 75.3024 100.753 52.0064C100.753 28.7104 81.7992 9.75638 58.5032 9.75638C55.724 9.75321 52.9554 10.0248 50.2373 10.5648C50.4261 10.1838 50.5382 9.7694 50.5673 9.34515C50.5965 8.91936 50.5414 8.49201 50.4053 8.08752C50.2691 7.68304 50.0546 7.30936 49.7739 6.98787Z" fill="url(#paint0_linear_11_1020)"/>
<defs>
<linearGradient id="paint0_linear_11_1020" x1="100.753" y1="50.0653" x2="3.25" y2="50.0653" gradientUnits="userSpaceOnUse">
<stop stop-color="#5495FC"/>
<stop offset="1" stop-color="#31D366"/>
</linearGradient>
</defs>
</svg>
