<svg width="24" height="24" viewBox="0 0 24 24" fill="none" xmlns="http://www.w3.org/2000/svg">
<path fill-rule="evenodd" clip-rule="evenodd" d="M10.9642 3.35582C6.76221 3.35582 3.35582 6.76221 3.35582 10.9642C3.35582 15.1662 6.76221 18.5726 10.9642 18.5726C13.0249 18.5726 14.8943 17.7534 16.2643 16.4228C16.2858 16.3928 16.3101 16.3641 16.3371 16.3371C16.3641 16.3101 16.3928 16.2858 16.4228 16.2643C17.7534 14.8943 18.5726 13.0249 18.5726 10.9642C18.5726 6.76221 15.1662 3.35582 10.9642 3.35582ZM17.7642 16.8055C19.1131 15.2366 19.9284 13.1956 19.9284 10.9642C19.9284 6.01341 15.915 2 10.9642 2C6.01341 2 2 6.01341 2 10.9642C2 15.915 6.01341 19.9284 10.9642 19.9284C13.1956 19.9284 15.2366 19.1131 16.8055 17.7642L20.8427 21.8014C21.1075 22.0662 21.5367 22.0662 21.8014 21.8014C22.0662 21.5367 22.0662 21.1075 21.8014 20.8427L17.7642 16.8055Z" fill="#0D0D0D"/>
</svg>
