<svg width="24" height="24" viewBox="0 0 24 24" fill="none" xmlns="http://www.w3.org/2000/svg">
<path d="M21.755 8.96916L13.4738 3.10979C13.2941 2.98104 13.0595 2.96444 12.865 3.06573C12.7691 3.11477 12.6887 3.18935 12.6325 3.28124C12.5764 3.37313 12.5467 3.47875 12.5468 3.58643V6.53158C6.67948 6.83713 2 11.7072 2 17.6489V19.9927C1.99997 20.134 2.05104 20.2706 2.14379 20.3772C2.23654 20.4838 2.36472 20.5533 2.50469 20.5729C2.78723 20.6141 3.06812 20.439 3.14898 20.154L3.23937 19.8376C4.44101 15.6331 8.2187 12.6416 12.5469 12.3921V15.3052C12.5467 15.4128 12.5764 15.5185 12.6325 15.6104C12.6887 15.7022 12.7691 15.7768 12.865 15.8259C13.0595 15.9272 13.2942 15.9094 13.4738 15.7818L21.7551 9.92244C21.9084 9.81255 22 9.63517 22 9.4458C22 9.25642 21.9084 9.079 21.755 8.96916Z" fill="#0D0D0D"/>
</svg>
