<svg width="182" height="119" viewBox="0 0 182 119" fill="none" xmlns="http://www.w3.org/2000/svg">
<g opacity="0.11" filter="url(#filter0_f_2032_224)">
<path d="M60.9181 65.1572C42.0328 45.6087 24.9181 57.4116 20.4919 60.6579" stroke="url(#paint0_linear_2032_224)" stroke-width="2.36066" stroke-linecap="round" stroke-linejoin="bevel"/>
</g>
<g opacity="0.11" filter="url(#filter1_f_2032_224)">
<path d="M60.9181 65.3796C60.9181 65.3796 99.2787 65.3796 126.426 108.461" stroke="url(#paint1_linear_2032_224)" stroke-width="2.36066" stroke-linecap="round" stroke-linejoin="bevel"/>
</g>
<g opacity="0.11" filter="url(#filter2_f_2032_224)">
<path d="M60.9181 65.4858C60.9181 65.4858 22.5574 65.4857 3.67218 113.182" stroke="url(#paint2_linear_2032_224)" stroke-width="2.36066" stroke-linecap="round" stroke-linejoin="bevel"/>
</g>
<g opacity="0.11" filter="url(#filter3_f_2032_224)">
<path d="M60.9181 65.1577C82.7542 38.2315 150.623 52.3961 177.771 101.97" stroke="url(#paint3_linear_2032_224)" stroke-width="2.36066" stroke-linecap="round" stroke-linejoin="bevel"/>
</g>
<path d="M62.0984 50.9199C62.0984 -16.9488 177.771 -27.8669 177.771 92.8217" stroke="url(#paint4_linear_2032_224)" stroke-opacity="0.16" stroke-width="1.18033" stroke-linecap="round" stroke-linejoin="bevel"/>
<path d="M59.7377 50.92C59.7377 -6.03079 20.1968 -7.80139 20.1968 52.3954" stroke="url(#paint5_linear_2032_224)" stroke-opacity="0.16" stroke-width="1.18033" stroke-linecap="round" stroke-linejoin="bevel"/>
<path d="M64.459 52.1004C78.3279 25.543 126.426 39.2771 126.426 99.6086" stroke="url(#paint6_linear_2032_224)" stroke-opacity="0.16" stroke-width="1.18033" stroke-linecap="round" stroke-linejoin="bevel"/>
<path d="M57.3771 51.8053C49.4099 17.7642 3.67216 13.7397 3.67216 104.625" stroke="url(#paint7_linear_2032_224)" stroke-opacity="0.16" stroke-width="1.18033" stroke-linecap="round" stroke-linejoin="bevel"/>
<path d="M65.3444 57.5594C65.3444 55.0362 63.2939 52.9856 60.7707 52.9856C58.2475 52.9856 56.1969 55.0362 56.1969 57.5594C56.1969 60.9897 60.7707 65.9446 60.7707 65.9446C60.7707 65.9446 65.3444 60.9897 65.3444 57.5594V57.5594Z" fill="url(#paint8_linear_2032_224)"/>
<g opacity="0.1" filter="url(#filter4_f_2032_224)">
<path d="M56.1969 69.7879C56.1969 70.937 58.3136 71.8708 60.9182 71.8708C63.5228 71.8708 65.6395 70.937 65.6395 69.7879C65.6395 68.2257 60.9182 65.9692 60.9182 65.9692C60.9182 65.9692 56.1969 68.2257 56.1969 69.7879V69.7879Z" fill="url(#paint9_linear_2032_224)"/>
</g>
<path d="M57.9674 57.4118C57.9674 55.9512 59.1625 54.7561 60.6231 54.7561C62.0838 54.7561 63.2789 55.9512 63.2789 57.4118C63.2789 58.8725 62.0971 60.0676 60.6231 60.0676C59.1625 60.0676 57.9674 58.8725 57.9674 57.4118V57.4118Z" fill="white"/>
<path d="M129.193 104.238C129.193 102.661 127.911 101.379 126.334 101.379C124.757 101.379 123.476 102.661 123.476 104.238C123.476 106.382 126.334 109.479 126.334 109.479C126.334 109.479 129.193 106.382 129.193 104.238V104.238Z" fill="url(#paint10_linear_2032_224)"/>
<g opacity="0.1" filter="url(#filter5_f_2032_224)">
<path d="M123.476 111.881C123.476 112.599 124.799 113.182 126.426 113.182C128.054 113.182 129.377 112.599 129.377 111.881C129.377 110.904 126.426 109.494 126.426 109.494C126.426 109.494 123.476 110.904 123.476 111.881V111.881Z" fill="url(#paint11_linear_2032_224)"/>
</g>
<path d="M124.656 104.33C124.656 103.356 125.453 102.559 126.426 102.559C127.4 102.559 128.197 103.356 128.197 104.33C128.197 105.304 127.409 106.1 126.426 106.1C125.453 106.1 124.656 105.304 124.656 104.33V104.33Z" fill="white"/>
<path d="M180.537 97.7461C180.537 96.1691 179.255 94.8875 177.678 94.8875C176.101 94.8875 174.82 96.1691 174.82 97.7461C174.82 99.89 177.678 102.987 177.678 102.987C177.678 102.987 180.537 99.89 180.537 97.7461V97.7461Z" fill="url(#paint12_linear_2032_224)"/>
<g opacity="0.1" filter="url(#filter6_f_2032_224)">
<path d="M174.82 105.389C174.82 106.107 176.143 106.691 177.771 106.691C179.398 106.691 180.721 106.107 180.721 105.389C180.721 104.412 177.771 103.002 177.771 103.002C177.771 103.002 174.82 104.412 174.82 105.389V105.389Z" fill="url(#paint13_linear_2032_224)"/>
</g>
<path d="M176 97.8381C176 96.8643 176.797 96.0676 177.771 96.0676C178.744 96.0676 179.541 96.8643 179.541 97.8381C179.541 98.8119 178.753 99.6086 177.771 99.6086C176.797 99.6086 176 98.8119 176 97.8381V97.8381Z" fill="white"/>
<path d="M22.9633 56.4343C22.9633 54.8573 21.6817 53.5757 20.1047 53.5757C18.5277 53.5757 17.2461 54.8573 17.2461 56.4343C17.2461 58.5782 20.1047 61.6751 20.1047 61.6751C20.1047 61.6751 22.9633 58.5782 22.9633 56.4343V56.4343Z" fill="url(#paint14_linear_2032_224)"/>
<g opacity="0.1" filter="url(#filter7_f_2032_224)">
<path d="M17.8362 64.0771C17.8362 64.7953 18.569 65.3789 20.1969 65.3789C21.8248 65.3789 23.1477 64.7953 23.1477 64.0771C23.1477 63.1007 20.1969 61.6904 20.1969 61.6904C20.1969 61.6904 17.8362 63.1007 17.8362 64.0771Z" fill="url(#paint15_linear_2032_224)"/>
</g>
<path d="M18.4265 56.5264C18.4265 55.5526 19.2232 54.7559 20.1969 54.7559C21.1707 54.7559 21.9674 55.5526 21.9674 56.5264C21.9674 57.5001 21.1796 58.2968 20.1969 58.2968C19.2232 58.2968 18.4265 57.5001 18.4265 56.5264V56.5264Z" fill="white"/>
<path d="M6.43871 108.959C6.43871 107.382 5.1571 106.101 3.5801 106.101C2.00311 106.101 0.721497 107.382 0.721497 108.959C0.721497 111.103 3.5801 114.2 3.5801 114.2C3.5801 114.2 6.43871 111.103 6.43871 108.959V108.959Z" fill="url(#paint16_linear_2032_224)"/>
<g opacity="0.1" filter="url(#filter8_f_2032_224)">
<path d="M2.49202 116.602C2.49202 117.32 2.04448 117.904 3.67235 117.904C5.30022 117.904 6.62317 117.32 6.62317 116.602C6.62317 115.626 3.67235 114.215 3.67235 114.215C3.67235 114.215 2.49202 115.375 2.49202 116.351L2.49202 116.602Z" fill="url(#paint17_linear_2032_224)"/>
</g>
<path d="M1.90179 109.051C1.90179 108.077 2.69852 107.281 3.67229 107.281C4.64606 107.281 5.44278 108.077 5.44278 109.051C5.44278 110.025 4.65491 110.822 3.67229 110.822C2.69852 110.822 1.90179 110.025 1.90179 109.051V109.051Z" fill="white"/>
<defs>
<filter id="filter0_f_2032_224" x="18.1311" y="51.7965" width="45.1476" height="15.7213" filterUnits="userSpaceOnUse" color-interpolation-filters="sRGB">
<feFlood flood-opacity="0" result="BackgroundImageFix"/>
<feBlend mode="normal" in="SourceGraphic" in2="BackgroundImageFix" result="shape"/>
<feGaussianBlur stdDeviation="0.590164" result="effect1_foregroundBlur_2032_224"/>
</filter>
<filter id="filter1_f_2032_224" x="58.5575" y="63.0189" width="70.2296" height="47.803" filterUnits="userSpaceOnUse" color-interpolation-filters="sRGB">
<feFlood flood-opacity="0" result="BackgroundImageFix"/>
<feBlend mode="normal" in="SourceGraphic" in2="BackgroundImageFix" result="shape"/>
<feGaussianBlur stdDeviation="0.590164" result="effect1_foregroundBlur_2032_224"/>
</filter>
<filter id="filter2_f_2032_224" x="1.31119" y="63.1251" width="61.9675" height="52.4183" filterUnits="userSpaceOnUse" color-interpolation-filters="sRGB">
<feFlood flood-opacity="0" result="BackgroundImageFix"/>
<feBlend mode="normal" in="SourceGraphic" in2="BackgroundImageFix" result="shape"/>
<feGaussianBlur stdDeviation="0.590164" result="effect1_foregroundBlur_2032_224"/>
</filter>
<filter id="filter3_f_2032_224" x="58.5574" y="49.3592" width="121.574" height="54.972" filterUnits="userSpaceOnUse" color-interpolation-filters="sRGB">
<feFlood flood-opacity="0" result="BackgroundImageFix"/>
<feBlend mode="normal" in="SourceGraphic" in2="BackgroundImageFix" result="shape"/>
<feGaussianBlur stdDeviation="0.590164" result="effect1_foregroundBlur_2032_224"/>
</filter>
<filter id="filter4_f_2032_224" x="55.6067" y="65.3791" width="10.623" height="7.08194" filterUnits="userSpaceOnUse" color-interpolation-filters="sRGB">
<feFlood flood-opacity="0" result="BackgroundImageFix"/>
<feBlend mode="normal" in="SourceGraphic" in2="BackgroundImageFix" result="shape"/>
<feGaussianBlur stdDeviation="0.295082" result="effect1_foregroundBlur_2032_224"/>
</filter>
<filter id="filter5_f_2032_224" x="122.885" y="108.904" width="7.08194" height="4.8688" filterUnits="userSpaceOnUse" color-interpolation-filters="sRGB">
<feFlood flood-opacity="0" result="BackgroundImageFix"/>
<feBlend mode="normal" in="SourceGraphic" in2="BackgroundImageFix" result="shape"/>
<feGaussianBlur stdDeviation="0.295082" result="effect1_foregroundBlur_2032_224"/>
</filter>
<filter id="filter6_f_2032_224" x="174.23" y="102.412" width="7.08194" height="4.8688" filterUnits="userSpaceOnUse" color-interpolation-filters="sRGB">
<feFlood flood-opacity="0" result="BackgroundImageFix"/>
<feBlend mode="normal" in="SourceGraphic" in2="BackgroundImageFix" result="shape"/>
<feGaussianBlur stdDeviation="0.295082" result="effect1_foregroundBlur_2032_224"/>
</filter>
<filter id="filter7_f_2032_224" x="17.2461" y="61.1003" width="6.49179" height="4.8688" filterUnits="userSpaceOnUse" color-interpolation-filters="sRGB">
<feFlood flood-opacity="0" result="BackgroundImageFix"/>
<feBlend mode="normal" in="SourceGraphic" in2="BackgroundImageFix" result="shape"/>
<feGaussianBlur stdDeviation="0.295082" result="effect1_foregroundBlur_2032_224"/>
</filter>
<filter id="filter8_f_2032_224" x="1.84551" y="113.625" width="5.36783" height="4.8688" filterUnits="userSpaceOnUse" color-interpolation-filters="sRGB">
<feFlood flood-opacity="0" result="BackgroundImageFix"/>
<feBlend mode="normal" in="SourceGraphic" in2="BackgroundImageFix" result="shape"/>
<feGaussianBlur stdDeviation="0.295082" result="effect1_foregroundBlur_2032_224"/>
</filter>
<linearGradient id="paint0_linear_2032_224" x1="20.7869" y1="62.1333" x2="58.2624" y2="63.6087" gradientUnits="userSpaceOnUse">
<stop stop-color="#282828"/>
<stop offset="0.486736" stop-color="#282828" stop-opacity="0.28"/>
<stop offset="1" stop-color="#282828"/>
</linearGradient>
<linearGradient id="paint1_linear_2032_224" x1="125.948" y1="96.6182" x2="65.1436" y2="97.6087" gradientUnits="userSpaceOnUse">
<stop stop-color="#282828"/>
<stop offset="0.486736" stop-color="#282828" stop-opacity="0.28"/>
<stop offset="1" stop-color="#282828"/>
</linearGradient>
<linearGradient id="paint2_linear_2032_224" x1="4.09003" y1="100.071" x2="57.2309" y2="100.754" gradientUnits="userSpaceOnUse">
<stop stop-color="#282828"/>
<stop offset="0.486736" stop-color="#282828" stop-opacity="0.28"/>
<stop offset="1" stop-color="#282828"/>
</linearGradient>
<linearGradient id="paint3_linear_2032_224" x1="176.918" y1="88.156" x2="68.4939" y2="90.8568" gradientUnits="userSpaceOnUse">
<stop stop-color="#282828"/>
<stop offset="0.486736" stop-color="#282828" stop-opacity="0.28"/>
<stop offset="1" stop-color="#282828"/>
</linearGradient>
<linearGradient id="paint4_linear_2032_224" x1="65.7131" y1="4.86749" x2="177.771" y2="4.8675" gradientUnits="userSpaceOnUse">
<stop stop-color="#3CDEB6"/>
<stop offset="0.65625" stop-color="#364AFF"/>
</linearGradient>
<linearGradient id="paint5_linear_2032_224" x1="58.5021" y1="9.75767" x2="20.1967" y2="9.75767" gradientUnits="userSpaceOnUse">
<stop stop-color="#3CDEB6"/>
<stop offset="0.65625" stop-color="#364AFF"/>
</linearGradient>
<linearGradient id="paint6_linear_2032_224" x1="66.3955" y1="41.9355" x2="126.426" y2="41.9355" gradientUnits="userSpaceOnUse">
<stop stop-color="#3CDEB6"/>
<stop offset="0.65625" stop-color="#364AFF"/>
</linearGradient>
<linearGradient id="paint7_linear_2032_224" x1="55.6988" y1="32.9295" x2="3.67216" y2="32.9295" gradientUnits="userSpaceOnUse">
<stop stop-color="#3CDEB6"/>
<stop offset="0.65625" stop-color="#364AFF"/>
</linearGradient>
<linearGradient id="paint8_linear_2032_224" x1="65.3444" y1="59.4651" x2="56.1969" y2="59.4651" gradientUnits="userSpaceOnUse">
<stop stop-color="#5495FC"/>
<stop offset="1" stop-color="#31D366"/>
</linearGradient>
<linearGradient id="paint9_linear_2032_224" x1="60.9182" y1="71.8708" x2="60.9182" y2="65.9692" gradientUnits="userSpaceOnUse">
<stop stop-color="#2F3A4B" stop-opacity="0"/>
<stop offset="1" stop-color="#2F3A4B"/>
</linearGradient>
<linearGradient id="paint10_linear_2032_224" x1="129.193" y1="105.429" x2="123.476" y2="105.429" gradientUnits="userSpaceOnUse">
<stop stop-color="#5495FC"/>
<stop offset="1" stop-color="#31D366"/>
</linearGradient>
<linearGradient id="paint11_linear_2032_224" x1="126.426" y1="113.182" x2="126.426" y2="109.494" gradientUnits="userSpaceOnUse">
<stop stop-color="#2F3A4B" stop-opacity="0"/>
<stop offset="1" stop-color="#2F3A4B"/>
</linearGradient>
<linearGradient id="paint12_linear_2032_224" x1="180.537" y1="98.9371" x2="174.82" y2="98.9371" gradientUnits="userSpaceOnUse">
<stop stop-color="#5495FC"/>
<stop offset="1" stop-color="#31D366"/>
</linearGradient>
<linearGradient id="paint13_linear_2032_224" x1="177.771" y1="106.691" x2="177.771" y2="103.002" gradientUnits="userSpaceOnUse">
<stop stop-color="#2F3A4B" stop-opacity="0"/>
<stop offset="1" stop-color="#2F3A4B"/>
</linearGradient>
<linearGradient id="paint14_linear_2032_224" x1="22.9633" y1="57.6254" x2="17.2461" y2="57.6254" gradientUnits="userSpaceOnUse">
<stop stop-color="#5495FC"/>
<stop offset="1" stop-color="#31D366"/>
</linearGradient>
<linearGradient id="paint15_linear_2032_224" x1="20.1969" y1="65.3789" x2="20.1969" y2="61.6904" gradientUnits="userSpaceOnUse">
<stop stop-color="#2F3A4B" stop-opacity="0"/>
<stop offset="1" stop-color="#2F3A4B"/>
</linearGradient>
<linearGradient id="paint16_linear_2032_224" x1="6.43871" y1="110.15" x2="0.721497" y2="110.15" gradientUnits="userSpaceOnUse">
<stop stop-color="#5495FC"/>
<stop offset="1" stop-color="#31D366"/>
</linearGradient>
<linearGradient id="paint17_linear_2032_224" x1="3.67235" y1="117.904" x2="3.67235" y2="114.215" gradientUnits="userSpaceOnUse">
<stop stop-color="#2F3A4B" stop-opacity="0"/>
<stop offset="1" stop-color="#2F3A4B"/>
</linearGradient>
</defs>
</svg>
