<svg width="194" height="192" viewBox="0 0 194 192" fill="none" xmlns="http://www.w3.org/2000/svg">
<path d="M102.173 191.594C152.61 191.594 193.496 150.708 193.496 100.271C193.496 49.8348 152.61 8.948 102.173 8.948C51.7368 8.948 10.8501 49.8348 10.8501 100.271C10.8501 150.708 51.7368 191.594 102.173 191.594Z" fill="url(#paint0_radial_2032_220)"/>
<path opacity="0.35" d="M95.689 190.734C148.117 190.734 190.618 148.233 190.618 95.805C190.618 43.377 148.117 0.875732 95.689 0.875732C43.261 0.875732 0.759705 43.377 0.759705 95.805C0.759705 148.233 43.261 190.734 95.689 190.734Z" fill="url(#paint1_radial_2032_220)"/>
<path opacity="0.32" d="M168.561 66.402H186.259C185.392 63.8189 184.685 61.2964 183.596 58.8142H166.139C157.462 35.0011 140.49 16.435 119.724 8.56459C111.948 6.41707 103.918 5.33093 95.8506 5.33571C90.2097 5.34165 84.5817 5.8754 79.0402 6.92997C55.9537 13.6703 36.984 33.1647 27.6404 58.8142H7.94416C6.83423 61.2964 6.0472 63.8391 5.17943 66.4222H25.0976C22.7624 74.9035 21.4813 83.6403 21.2835 92.4349H0.820435C0.820435 93.2624 0.820435 94.0696 0.820435 94.897C0.820435 96.6325 0.820431 98.3478 0.981875 100.043H21.3642C21.7716 108.863 23.2904 117.596 25.8847 126.036H5.96647C6.93514 128.639 7.98452 131.182 9.19536 133.644H28.4678C37.8719 157.497 55.6711 175.659 77.2441 182.521C91.8618 185.613 107.021 184.995 121.339 180.725C140.692 172.754 156.513 155.62 165.191 133.644H182.526C183.717 131.182 184.544 128.639 185.513 126.036H167.855C170.421 117.585 171.919 108.846 172.315 100.023H190.598C190.598 98.3277 190.76 96.6123 190.76 94.8768C190.76 94.0494 190.76 93.2422 190.76 92.4148H172.436C172.228 83.6167 170.927 74.8787 168.561 66.402ZM77.5469 15.3654C69.8379 24.9512 63.7434 40.1673 60.2925 58.794H35.652C43.9261 37.9878 59.122 22.0452 77.5469 15.3654ZM32.9882 66.402H59.0413C57.8138 75.021 57.1397 83.7097 57.0232 92.4148H28.7705C29.0129 83.5948 30.4313 74.8467 32.9882 66.402ZM28.9521 100.023H57.2049C57.3873 108.733 58.1355 117.422 59.4449 126.036H33.7954C31.0247 117.622 29.409 108.871 28.9925 100.023H28.9521ZM36.6611 133.644H60.7768C64.2277 151.14 70.2819 165.448 77.5469 174.59C59.8687 168.173 45.1773 153.219 36.7014 133.644H36.6611ZM92.985 177.334C83.1974 173.985 73.5511 158.022 68.4454 133.644H93.0253L92.985 177.334ZM92.985 126.036H67.0732C65.7256 117.426 64.957 108.735 64.7726 100.023H93.0253L92.985 126.036ZM92.985 92.4148H64.7322C64.8434 83.7094 65.5175 75.0204 66.7503 66.402H92.985V92.4148ZM92.985 58.794H67.9813C72.9457 33.0234 82.9149 16.0919 93.0253 12.6209L92.985 58.794ZM157.966 58.794H133.346C129.875 40.1673 123.801 24.9512 116.072 15.3654C134.537 22.0452 149.733 37.9878 158.007 58.794H157.966ZM100.553 12.6209C110.643 16.0919 120.632 33.0234 125.597 58.794H100.553V12.6209ZM100.553 66.402H126.787C128.03 75.0193 128.704 83.709 128.805 92.4148H100.553V66.402ZM100.553 100.023H128.805C128.621 108.735 127.852 117.426 126.505 126.036H100.553V100.023ZM100.553 177.334V133.644H125.112C120.067 158.022 110.421 173.985 100.553 177.334ZM116.031 174.59C123.397 165.448 129.29 151.14 132.821 133.644H157.058C148.481 153.219 133.79 168.193 116.112 174.59H116.031ZM159.783 126.036H134.254C135.571 117.423 136.326 108.734 136.514 100.023H164.767C164.308 108.875 162.659 117.624 159.863 126.036H159.783ZM136.454 92.4148C136.337 83.7097 135.663 75.021 134.436 66.402H160.489C162.994 74.8529 164.351 83.6022 164.525 92.4148H136.454Z" fill="white"/>
<defs>
<radialGradient id="paint0_radial_2032_220" cx="0" cy="0" r="1" gradientUnits="userSpaceOnUse" gradientTransform="translate(129.282 19.6077) scale(147.292)">
<stop offset="0.01" stop-color="#60EC8E"/>
<stop offset="0.99" stop-color="#5495FC"/>
</radialGradient>
<radialGradient id="paint1_radial_2032_220" cx="0" cy="0" r="1" gradientUnits="userSpaceOnUse" gradientTransform="translate(92.1574 95.1391) scale(93.4763)">
<stop stop-color="white" stop-opacity="0"/>
<stop offset="0.37" stop-color="white" stop-opacity="0.01"/>
<stop offset="0.51" stop-color="white" stop-opacity="0.03"/>
<stop offset="0.6" stop-color="white" stop-opacity="0.08"/>
<stop offset="0.68" stop-color="white" stop-opacity="0.15"/>
<stop offset="0.75" stop-color="white" stop-opacity="0.23"/>
<stop offset="0.8" stop-color="white" stop-opacity="0.34"/>
<stop offset="0.86" stop-color="white" stop-opacity="0.47"/>
<stop offset="0.91" stop-color="white" stop-opacity="0.61"/>
<stop offset="0.95" stop-color="white" stop-opacity="0.78"/>
<stop offset="0.99" stop-color="white" stop-opacity="0.96"/>
<stop offset="1" stop-color="white"/>
</radialGradient>
</defs>
</svg>
