<svg width="24" height="24" viewBox="0 0 24 24" fill="none" xmlns="http://www.w3.org/2000/svg">
<path fill-rule="evenodd" clip-rule="evenodd" d="M7.08245 6.87805H5.70432C5.24522 6.87807 4.80318 7.04167 4.4672 7.33593C4.13123 7.63018 3.92628 8.03323 3.89361 8.4639L3.0046 20.1712C2.98687 20.4051 3.02053 20.6398 3.10349 20.8609C3.18645 21.082 3.31694 21.2846 3.48681 21.4562C3.65668 21.6277 3.86231 21.7646 4.09087 21.8581C4.31943 21.9517 4.56603 22 4.81531 22H19.1848C19.434 21.9998 19.6805 21.9515 19.909 21.8578C20.1375 21.7642 20.3431 21.6274 20.5129 21.4559C20.6828 21.2843 20.8132 21.0818 20.8963 20.8607C20.9793 20.6397 21.0131 20.405 20.9955 20.1712L20.1065 8.4639C20.0738 8.03323 19.8688 7.63018 19.5329 7.33593C19.1969 7.04167 18.7549 6.87807 18.2958 6.87805H16.9275V6.63415C16.9275 5.40509 16.4083 4.22638 15.4843 3.35731C14.5602 2.48824 13.3069 2 12 2C9.37812 2 6.95485 3.9639 7.07259 6.63415L7.08245 6.87805ZM16.9275 8.34146V9C16.9275 9.19406 16.8455 9.38017 16.6996 9.5174C16.5537 9.65462 16.3558 9.73171 16.1495 9.73171C15.9431 9.73171 15.7452 9.65462 15.5993 9.5174C15.4534 9.38017 15.3714 9.19406 15.3714 9V8.34146H8.62863V9C8.62863 9.19406 8.54666 9.38017 8.40075 9.5174C8.25485 9.65462 8.05695 9.73171 7.85061 9.73171C7.64427 9.73171 7.44638 9.65462 7.30047 9.5174C7.15456 9.38017 7.07259 9.19406 7.07259 9C7.07259 9 7.14002 10.2902 7.11772 8.34146H5.70432C5.63884 8.34155 5.57581 8.36493 5.5279 8.40692C5.47998 8.4489 5.45073 8.50638 5.44602 8.56781L4.55649 20.2751C4.55392 20.3086 4.55871 20.3421 4.57056 20.3737C4.5824 20.4054 4.60105 20.4343 4.62534 20.4589C4.64962 20.4834 4.67903 20.503 4.71171 20.5163C4.7444 20.5297 4.77966 20.5366 4.81531 20.5366H19.1848C19.2204 20.5365 19.2556 20.5295 19.2882 20.5161C19.3208 20.5026 19.3501 20.4831 19.3744 20.4586C19.3986 20.4341 19.4173 20.4051 19.4292 20.3736C19.4411 20.342 19.446 20.3085 19.4436 20.2751L18.5541 8.56781C18.5493 8.50638 18.5201 8.4489 18.4722 8.40692C18.4243 8.36493 18.3612 8.34155 18.2958 8.34146H16.9275ZM15.3714 6.87805V6.63415C15.3714 5.79322 15.0162 4.98673 14.384 4.3921C13.7517 3.79747 12.8942 3.46341 12 3.46341C11.1059 3.46341 10.2484 3.79747 9.61609 4.3921C8.98383 4.98673 8.62863 5.79322 8.62863 6.63415V6.87805H15.3714Z" fill="#0D0D0D"/>
</svg>
