<svg width="16" height="16" viewBox="0 0 16 16" fill="none" xmlns="http://www.w3.org/2000/svg">
<path fill-rule="evenodd" clip-rule="evenodd" d="M4.81205 4.90242H3.91882C3.62125 4.90243 3.33474 5.00847 3.11698 5.19919C2.89922 5.38991 2.76638 5.65115 2.74521 5.93029L2.169 13.5184C2.1575 13.6699 2.17932 13.8221 2.23309 13.9654C2.28686 14.1087 2.37144 14.24 2.48154 14.3512C2.59164 14.4624 2.72492 14.5511 2.87306 14.6117C3.0212 14.6724 3.18104 14.7037 3.3426 14.7037H12.6561C12.8177 14.7036 12.9775 14.6722 13.1256 14.6116C13.2737 14.5509 13.4069 14.4622 13.517 14.351C13.6271 14.2398 13.7116 14.1085 13.7654 13.9653C13.8193 13.822 13.8411 13.6699 13.8298 13.5184L13.2535 5.93029C13.2324 5.65115 13.0995 5.38991 12.8818 5.19919C12.664 5.00847 12.3775 4.90243 12.0799 4.90242H11.1931V4.74434C11.1931 3.94773 10.8566 3.18375 10.2577 2.62046C9.65873 2.05717 8.8464 1.74072 7.99937 1.74072C6.29998 1.74072 4.72935 3.01362 4.80566 4.74434L4.81205 4.90242ZM11.1931 5.85093V6.27776C11.1931 6.40354 11.14 6.52417 11.0454 6.61311C10.9508 6.70205 10.8226 6.75201 10.6888 6.75201C10.5551 6.75201 10.4268 6.70205 10.3322 6.61311C10.2377 6.52417 10.1845 6.40354 10.1845 6.27776V5.85093H5.8142V6.27776C5.8142 6.40354 5.76107 6.52417 5.6665 6.61311C5.57193 6.70205 5.44367 6.75201 5.30993 6.75201C5.17619 6.75201 5.04793 6.70205 4.95336 6.61311C4.85879 6.52417 4.80566 6.40354 4.80566 6.27776C4.80566 6.27776 4.84936 7.11403 4.83491 5.85093H3.91882C3.87637 5.85099 3.83552 5.86614 3.80447 5.89335C3.77341 5.92057 3.75445 5.95782 3.7514 5.99763L3.17485 13.5857C3.17319 13.6074 3.17629 13.6291 3.18397 13.6496C3.19165 13.6701 3.20373 13.6889 3.21947 13.7048C3.23522 13.7207 3.25427 13.7334 3.27546 13.7421C3.29664 13.7507 3.3195 13.7552 3.3426 13.7552H12.6561C12.6792 13.7551 12.702 13.7506 12.7232 13.7419C12.7443 13.7332 12.7633 13.7205 12.779 13.7046C12.7948 13.6887 12.8069 13.67 12.8146 13.6495C12.8223 13.6291 12.8255 13.6074 12.8239 13.5857L12.2474 5.99763C12.2443 5.95782 12.2253 5.92057 12.1943 5.89335C12.1632 5.86614 12.1224 5.85099 12.0799 5.85093H11.1931ZM10.1845 4.90242V4.74434C10.1845 4.19929 9.95432 3.67656 9.54453 3.29116C9.13473 2.90575 8.57892 2.68923 7.99937 2.68923C7.41983 2.68923 6.86402 2.90575 6.45422 3.29116C6.04442 3.67656 5.8142 4.19929 5.8142 4.74434V4.90242H10.1845Z" fill="white"/>
</svg>
