<svg width="40" height="40" viewBox="0 0 40 40" fill="none" xmlns="http://www.w3.org/2000/svg">
<rect width="40" height="40" rx="8" fill="#F0F1F5"/>
<path d="M30.2387 11.8816H9.76133C8.79013 11.8816 8 12.6717 8 13.6429V26.3558C8 27.327 8.79013 28.1172 9.76133 28.1172H30.2386C31.2099 28.1172 32 27.327 32 26.3558V13.6429C32 12.6717 31.2099 11.8816 30.2387 11.8816ZM15.3826 22.4528H17.7618C18.0472 22.4528 18.2786 22.6842 18.2786 22.9696C18.2786 23.255 18.0472 23.4864 17.7618 23.4864H15.3826C15.0972 23.4864 14.8658 23.255 14.8658 22.9696C14.8658 22.6842 15.0972 22.4528 15.3826 22.4528ZM10.235 17.269C10.235 16.9836 10.4664 16.7522 10.7518 16.7522H13.8478C14.1333 16.7522 14.3646 16.9836 14.3646 17.269V19.5075C14.3646 19.7929 14.1332 20.0242 13.8478 20.0242H10.7518C10.4663 20.0242 10.235 19.7929 10.235 19.5075V17.269ZM10.7518 22.4528H13.1309C13.4164 22.4528 13.6477 22.6842 13.6477 22.9696C13.6477 23.255 13.4164 23.4864 13.1309 23.4864H10.7518C10.4663 23.4864 10.235 23.255 10.235 22.9696C10.235 22.6842 10.4664 22.4528 10.7518 22.4528ZM19.2453 25.7845H10.7518C10.4663 25.7845 10.235 25.5532 10.235 25.2677C10.235 24.9823 10.4664 24.7509 10.7518 24.7509H19.2453C19.5308 24.7509 19.7621 24.9823 19.7621 25.2677C19.7621 25.5532 19.5308 25.7845 19.2453 25.7845ZM22.3926 23.4864H20.0135C19.728 23.4864 19.4967 23.255 19.4967 22.9696C19.4967 22.6842 19.728 22.4528 20.0135 22.4528H22.3926C22.6781 22.4528 22.9094 22.6842 22.9094 22.9696C22.9094 23.255 22.6781 23.4864 22.3926 23.4864ZM27.0234 23.4864H24.6443C24.3588 23.4864 24.1275 23.255 24.1275 22.9696C24.1275 22.6842 24.3589 22.4528 24.6443 22.4528H27.0234C27.3089 22.4528 27.5402 22.6842 27.5402 22.9696C27.5402 23.255 27.3088 23.4864 27.0234 23.4864ZM29.2482 15.9369H23.6368C23.3514 15.9369 23.12 15.7055 23.12 15.4201C23.12 15.1347 23.3514 14.9033 23.6368 14.9033H29.2482C29.5337 14.9033 29.765 15.1347 29.765 15.4201C29.765 15.7055 29.5336 15.9369 29.2482 15.9369Z" fill="black"/>
</svg>
