<svg width="24" height="24" viewBox="0 0 24 24" fill="none" xmlns="http://www.w3.org/2000/svg">
<path fill-rule="evenodd" clip-rule="evenodd" d="M10.0502 15.1629V9.42508L15.0189 12.2941L10.0502 15.1629ZM21.1259 7.69049C20.906 6.86775 20.258 6.2196 19.4351 5.99966C17.9435 5.6001 11.9627 5.6001 11.9627 5.6001C11.9627 5.6001 5.98197 5.6001 4.49045 5.99966C3.66755 6.2196 3.01956 6.86775 2.79962 7.69049C2.3999 9.18216 2.3999 12.294 2.3999 12.294C2.3999 12.294 2.3999 15.4059 2.79962 16.8975C3.01956 17.7202 3.66755 18.3685 4.49045 18.5883C5.98197 18.988 11.9627 18.988 11.9627 18.988C11.9627 18.988 17.9435 18.988 19.4351 18.5883C20.258 18.3685 20.906 17.7202 21.1259 16.8975C21.5256 15.4059 21.5256 12.294 21.5256 12.294C21.5256 12.294 21.5256 9.18216 21.1259 7.69049Z" fill="white"/>
</svg>
